<svg version="1.1" id="Layer_1" xmlns="http://www.w3.org/2000/svg" xmlns:xlink="http://www.w3.org/1999/xlink" x="0px" y="0px"
	 width="100%" viewBox="84 126 388 392" xml:space="preserve">
<path fill="#FE6801" opacity="1.000000" stroke="none" 
	d="
M472.000946,296.000000 
	C472.000977,347.152344 472.009094,397.804688 471.998474,448.457031 
	C471.990173,488.135864 442.175323,517.999451 402.589142,518.000244 
	C318.779510,518.001953 234.969894,518.008728 151.160263,517.996704 
	C118.528976,517.992004 89.707451,493.042236 84.956451,460.634735 
	C84.380089,456.703247 84.040474,452.698303 84.038071,448.727142 
	C83.986649,363.751221 83.995117,278.775238 84.000977,193.799286 
	C84.003540,156.608963 114.536774,126.003853 151.641769,126.001076 
	C235.951248,125.994781 320.260742,125.991478 404.570221,126.002777 
	C441.175201,126.007683 471.797272,156.355743 471.963531,193.029861 
	C472.118347,227.185928 471.999390,261.343231 472.000946,296.000000 
M333.981873,272.149048 
	C334.058197,271.697754 334.134491,271.246460 333.884247,270.261719 
	C333.349304,270.205109 332.814331,270.148529 331.594818,270.019501 
	C332.608215,270.921051 333.061707,271.324493 333.981873,272.149048 
M311.995819,344.004120 
	C311.995819,344.004120 311.970398,344.069885 311.497650,343.459290 
	C309.943787,343.330536 308.389893,343.201813 306.225647,343.046204 
	C305.452820,342.446991 304.680023,341.847809 303.674835,340.680115 
	C302.987640,340.581879 302.300446,340.483673 301.613251,340.385437 
	C301.668457,340.909393 301.723663,341.433350 302.117981,342.633057 
	C302.736115,345.073181 303.354248,347.513306 303.426788,350.430817 
	C301.882050,351.432251 300.337311,352.433685 298.792572,353.435150 
	C298.191742,351.125427 297.590912,348.815704 296.922729,346.247101 
	C296.499939,346.947235 296.176819,347.482330 295.356049,348.521698 
	C295.277588,349.457672 295.199097,350.393616 295.042023,351.937378 
	C294.744263,352.466248 294.446472,352.995087 293.922791,353.686310 
	C293.776367,353.807495 293.654633,353.949829 292.898285,354.418610 
	C291.660431,355.111908 290.422607,355.805206 289.184753,356.498505 
	C289.353058,356.837708 289.521362,357.176941 289.689667,357.516144 
	C291.209717,356.761841 292.729767,356.007538 294.709961,355.061218 
	C294.998505,354.861359 295.178619,354.589630 295.903778,354.293030 
	C298.277557,355.864380 300.651367,357.435760 302.699799,359.595551 
	C299.786560,362.419434 296.873322,365.243286 293.437256,367.920135 
	C293.271240,367.847931 293.105225,367.775726 292.522888,367.300537 
	C291.681671,367.511108 290.840424,367.721710 289.631317,368.128723 
	C289.631317,368.128723 289.215240,368.100647 288.328796,368.026825 
	C287.438629,368.059845 286.548492,368.092834 284.950775,368.138123 
	C281.850067,366.801575 278.749359,365.465027 275.384491,363.708771 
	C275.220123,363.236237 275.055725,362.763702 274.835419,361.787079 
	C274.626221,361.530243 274.417053,361.273376 274.046692,360.355377 
	C274.061859,359.904785 274.077026,359.454224 274.507416,358.705536 
	C274.388519,358.141327 274.269592,357.577118 274.012665,356.461395 
	C273.899811,356.102264 273.786957,355.743134 274.222748,354.995117 
	C274.811523,354.226898 275.400330,353.458710 275.985046,352.695831 
	C277.464386,353.671143 278.874969,354.601105 280.285553,355.531097 
	C280.594452,355.091461 280.903351,354.651825 281.212219,354.212158 
	C278.731049,352.376251 276.249847,350.540344 273.874542,347.973907 
	C275.784027,347.852600 277.693542,347.731262 280.099579,348.196350 
	C282.021881,347.960907 283.944153,347.725464 286.537201,347.243164 
	C287.888062,346.407410 289.238922,345.571625 291.136139,344.269989 
	C292.632385,342.524719 294.059143,340.713135 295.644073,339.052490 
	C297.290222,337.327667 299.089417,335.748871 301.360870,333.766205 
	C302.353485,333.143707 303.346069,332.521240 305.125671,332.018036 
	C309.025787,332.315002 312.925903,332.612000 317.261658,332.870941 
	C317.559265,332.788116 317.782410,332.611298 318.663147,332.142761 
	C321.169983,330.105072 323.676849,328.067383 326.802124,325.907928 
	C327.192719,325.245911 327.583282,324.583893 328.154205,323.299774 
	C328.752441,322.188629 329.350708,321.077484 330.515656,319.550720 
	C330.648315,318.636536 330.780975,317.722382 330.912781,316.053497 
	C330.828918,314.483490 330.745026,312.913452 330.696381,312.003143 
	C333.098419,310.134491 336.086823,308.953003 336.943207,306.887543 
	C338.391327,303.394836 340.849426,302.520905 344.473175,301.614563 
	C344.233887,300.766113 343.994598,299.917633 343.089508,299.258179 
	C340.118958,301.012604 338.348755,299.567444 337.103027,296.329498 
	C337.612488,295.433899 338.121948,294.538330 339.291168,292.482880 
	C336.426300,293.393402 333.410797,293.658478 333.228088,294.522552 
	C332.055115,300.070465 328.239410,302.497314 323.370270,304.513428 
	C325.938843,304.727417 328.447388,304.514130 330.088684,303.209625 
	C332.074707,301.631195 333.326813,299.129364 334.948975,297.778931 
	C336.991699,301.698456 338.632935,305.541870 332.322784,307.997559 
	C331.576508,308.373199 330.830231,308.748840 329.746246,309.549530 
	C329.194946,310.192230 328.643646,310.834900 328.058838,312.442017 
	C328.050903,314.653534 328.042938,316.865082 328.005798,319.747040 
	C327.651459,321.228302 327.297119,322.709534 326.611938,324.604767 
	C326.080139,325.041687 325.548370,325.478607 324.805878,326.595306 
	C321.269592,328.091919 317.733337,329.588531 313.271332,331.017090 
	C312.026672,331.049774 310.782013,331.082458 308.906433,331.153473 
	C307.686218,330.896759 306.465973,330.640076 304.828674,329.738739 
	C302.941650,329.058594 301.054596,328.378418 298.141479,327.328430 
	C299.232758,329.101044 299.558716,329.630493 299.664398,330.801147 
	C298.904846,332.574982 298.145264,334.348816 296.601440,336.052887 
	C295.405182,336.328217 294.208893,336.603546 292.666290,337.060547 
	C292.666290,337.060547 292.275879,337.083405 291.616119,337.413330 
	C291.445892,338.356873 291.275665,339.300415 291.077698,340.879974 
	C290.639801,341.831635 290.201935,342.783295 289.113129,343.995300 
	C287.120758,344.980103 285.128357,345.964935 282.218201,346.987244 
	C281.297302,347.043152 280.376373,347.099030 279.044434,346.626984 
	C275.640289,344.857208 271.784668,343.439423 273.354828,338.226410 
	C274.433685,338.327332 275.512543,338.428223 278.253632,338.684570 
	C275.854889,333.814850 273.929291,329.905579 271.989014,325.311523 
	C271.664276,324.700592 271.339539,324.089661 271.014832,323.478729 
	C270.733459,323.775635 270.452057,324.072510 270.170654,324.369385 
	C270.779205,324.913940 271.387787,325.458466 271.956543,326.592133 
	C271.654663,330.439056 271.352783,334.285950 270.977356,338.973297 
	C271.353180,342.152954 271.729004,345.332642 272.319214,349.234070 
	C275.180420,351.316284 273.397644,353.377258 272.270569,356.228455 
	C273.110809,359.218018 273.951019,362.207611 275.147675,365.801422 
	C277.588104,367.133026 279.963898,369.402374 282.484100,369.575989 
	C286.243622,369.834930 290.104889,368.616364 294.506287,368.202026 
	C297.680481,365.565399 300.854675,362.928741 304.860748,360.129089 
	C306.544647,360.104919 308.228546,360.080750 310.484589,360.624023 
	C319.011475,361.679321 324.548096,358.955322 326.926239,351.652283 
	C328.171631,347.827728 329.743591,345.306702 333.639557,343.608459 
	C335.831696,342.652863 337.051422,339.466400 339.364105,336.884705 
	C341.950745,333.627808 344.675293,330.401825 341.555847,325.222504 
	C341.171509,321.039093 339.622375,316.709167 343.679291,312.697906 
	C345.592621,310.308258 347.505951,307.918579 349.419281,305.528900 
	C348.880310,305.119232 348.341339,304.709595 347.802368,304.299927 
	C345.876892,306.787659 343.951385,309.275421 341.560425,312.152832 
	C340.830414,312.469452 340.100372,312.786041 338.749542,313.309540 
	C338.829407,314.213531 338.909302,315.117523 339.433563,316.748352 
	C338.420593,319.196167 337.407654,321.643982 336.680878,323.400208 
	C337.810120,324.365692 339.394409,325.720184 340.988342,327.865631 
	C339.699036,331.097839 338.409729,334.330017 336.971497,338.182709 
	C334.979401,339.788452 332.987305,341.394226 330.066132,342.992523 
	C326.867401,343.028961 323.668671,343.065430 319.846039,343.102753 
	C319.235443,342.984283 318.624817,342.865814 317.913208,342.073944 
	C316.283112,341.039398 314.653046,340.004822 312.895844,338.696869 
	C312.804016,338.650818 312.712189,338.604736 312.620361,338.558655 
	C312.736389,338.713989 312.852386,338.869324 313.050385,339.711853 
	C314.375183,340.813965 315.699982,341.916046 317.182251,343.680939 
	C320.326691,346.032196 318.842804,347.656006 315.465790,349.048096 
	C313.657562,349.396790 311.849365,349.745483 310.063690,350.886169 
	C314.439026,353.285522 317.748993,351.974640 320.702271,347.556641 
	C321.208496,347.001617 321.714722,346.446594 322.948761,345.873901 
	C326.522766,346.001068 326.522766,346.001068 325.455231,348.478729 
	C325.344116,349.426605 325.233002,350.374481 325.044525,352.004211 
	C322.798431,354.040466 320.552307,356.076721 317.806519,358.154510 
	C317.546936,358.353516 317.287384,358.552551 316.154572,358.911377 
	C314.086060,358.992096 312.017548,359.072815 309.972870,359.001099 
	C309.972870,359.001099 310.024597,358.855713 309.493622,358.369415 
	C308.542694,358.289886 307.591736,358.210388 305.948090,358.106903 
	C304.303497,357.330231 302.658936,356.553558 301.050293,355.793884 
	C302.472809,353.909637 303.598511,352.418549 305.026337,350.217560 
	C304.883972,345.313995 309.215576,346.218842 312.237732,344.828766 
	C312.316772,344.729248 312.477081,344.557800 312.462402,344.541199 
	C312.303284,344.361450 312.116730,344.206055 311.995819,344.004120 
M293.042725,308.035675 
	C293.042725,308.035675 293.020905,308.062988 292.254883,308.021423 
	C290.840820,308.313110 289.426727,308.604767 287.464813,309.343658 
	C285.703339,310.416901 283.941864,311.490143 282.836914,312.163391 
	C285.883087,312.163391 289.450348,312.163391 293.459351,312.628632 
	C294.631104,312.471619 295.802856,312.314606 297.657532,311.997772 
	C298.588226,311.964630 299.518890,311.931488 301.042877,311.809570 
	C306.701813,308.137939 306.701813,308.137939 306.202820,305.860718 
	C303.765015,307.306946 301.301270,308.768585 298.112396,310.299805 
	C296.705658,310.193176 293.977142,311.301361 296.534698,307.587311 
	C296.349213,306.404846 296.163727,305.222412 295.506409,303.646820 
	C294.947327,303.161407 294.388245,302.675995 293.829163,302.190582 
	C293.587677,302.698853 293.346222,303.207123 293.033081,304.574860 
	C293.040375,305.717529 293.047638,306.860229 293.042725,308.035675 
M342.436798,268.357025 
	C342.080902,267.979309 341.725006,267.601593 341.369110,267.223877 
	C341.250702,267.805420 341.132294,268.386993 340.993896,269.861420 
	C341.028290,271.655884 341.062714,273.450348 341.017517,275.971863 
	C340.360168,276.767700 339.702820,277.563538 338.846222,278.600586 
	C337.701721,276.305450 336.799927,274.497131 335.898163,272.688782 
	C335.639709,272.783173 335.381226,272.877563 335.122742,272.971954 
	C335.417999,274.309479 335.713257,275.647003 335.986847,277.892212 
	C336.030334,279.733582 336.073853,281.574951 336.053772,284.010345 
	C335.655121,284.680756 335.256439,285.351196 334.380890,286.447662 
	C334.337708,287.394104 334.294525,288.340546 334.251343,289.286987 
	C334.589142,289.378693 334.926941,289.470398 335.264771,289.562103 
	C335.836090,288.354462 336.407440,287.146851 337.245209,285.282898 
	C338.280212,283.531036 339.196991,281.694122 340.380798,280.049316 
	C341.781067,278.103790 343.419098,276.878754 345.094543,280.635376 
	C345.823669,280.955078 346.552795,281.274750 347.281921,281.594452 
	C346.826477,280.403442 346.371002,279.212433 345.323151,277.711487 
	C344.663422,276.155487 343.967041,274.613708 343.355286,273.039093 
	C342.836853,271.704620 342.416229,270.332123 341.979431,269.023712 
	C341.979431,269.023712 342.033966,269.024536 342.436798,268.357025 
M298.471405,286.238007 
	C299.074738,286.984955 299.678040,287.731903 300.573151,289.098755 
	C300.748871,289.989594 300.924622,290.880463 301.028381,292.608521 
	C301.041534,293.447052 301.054688,294.285553 301.054260,295.841827 
	C300.638885,297.495544 300.223511,299.149292 299.808105,300.803009 
	C300.194183,300.963837 300.580231,301.124695 300.966278,301.285553 
	C301.898285,298.827301 302.830292,296.369049 304.547668,293.976013 
	C306.049194,293.646454 307.550751,293.316864 309.033569,292.537415 
	C309.033569,292.537415 308.979858,292.090393 308.624451,291.535431 
	C307.428040,291.618958 306.231659,291.702454 304.351410,291.957123 
	C303.324677,290.559326 302.297943,289.161499 301.076630,287.120789 
	C300.051971,286.375214 299.027313,285.629639 297.965546,284.355957 
	C296.903381,283.536407 295.841217,282.716858 294.641205,281.182159 
	C294.740845,280.463562 294.840515,279.744965 295.607574,279.008240 
	C296.399139,278.723969 297.190735,278.439697 298.567413,277.944366 
	C299.110382,277.659393 299.653351,277.374420 300.851929,277.029694 
	C302.238129,275.693878 303.624359,274.358063 305.498291,272.657257 
	C305.376495,271.776489 305.254700,270.895721 304.742920,269.452881 
	C301.798920,265.356171 305.891724,262.424438 307.356140,258.956238 
	C308.917419,258.627197 310.478668,258.298187 312.496857,257.504883 
	C313.614777,256.525604 314.732697,255.546341 315.850616,254.567062 
	C315.525909,254.255981 315.201172,253.944901 314.876465,253.633820 
	C313.042694,254.463745 311.208893,255.293671 308.485870,256.043945 
	C307.596771,256.053864 306.707672,256.063782 305.184784,256.024841 
	C303.891754,255.378784 302.598694,254.732742 300.870300,253.462662 
	C298.677765,244.153061 290.422760,240.484985 283.548309,234.368332 
	C284.266113,236.390274 284.679047,237.553421 285.019409,238.512085 
	C283.689880,239.168854 282.418365,239.796967 281.146820,240.425079 
	C282.173248,241.667694 282.926025,242.018692 283.653931,241.973129 
	C290.902771,241.519272 295.621033,244.605545 297.945374,251.593430 
	C298.308014,252.683609 300.087952,253.302353 301.362976,254.868149 
	C303.549805,258.276123 304.485321,261.671478 302.157166,265.535614 
	C301.543121,266.554718 302.102509,268.280853 302.037415,270.568970 
	C302.058258,271.457672 302.079102,272.346344 301.940155,273.870087 
	C300.659485,274.658569 299.378815,275.447052 297.303619,276.202423 
	C295.181061,275.028687 293.058472,273.854950 290.569885,272.339600 
	C290.299896,272.876923 290.029907,273.414246 290.357452,274.390503 
	C291.512695,277.016632 296.116028,279.579285 289.797852,282.334503 
	C287.176208,284.346863 284.644440,285.918701 280.903137,284.978729 
	C277.333771,284.082031 276.266510,286.472961 276.432312,290.585449 
	C280.235962,288.570892 283.416107,284.883301 287.668915,289.549133 
	C289.206238,287.134277 290.470459,285.148438 292.327789,283.098114 
	C293.098511,282.941193 293.869202,282.784271 294.888123,283.302307 
	C295.900696,284.208862 296.913300,285.115448 298.471405,286.238007 
M275.734619,270.529083 
	C276.447845,268.814178 277.161072,267.099274 277.989868,264.777039 
	C278.824890,263.268280 279.659943,261.759521 280.707642,259.866516 
	C276.696808,261.440552 275.258179,259.772644 274.949829,255.500916 
	C274.948425,251.960922 274.947021,248.420914 274.989258,244.148254 
	C275.284607,242.219467 275.579926,240.290680 275.953064,237.461731 
	C275.935699,236.561630 275.918365,235.661545 276.167084,234.227158 
	C277.023651,233.789444 277.880188,233.351730 279.430328,232.752762 
	C280.692810,232.121063 281.955261,231.489365 283.217743,230.857666 
	C283.042053,230.484756 282.866364,230.111862 282.690643,229.738953 
	C281.360443,230.257782 280.030212,230.776611 278.181702,231.591965 
	C276.749969,230.550949 275.318207,229.509918 273.949463,227.537476 
	C273.942749,226.303162 273.936066,225.068863 273.973297,223.276886 
	C274.044861,222.911514 274.116425,222.546127 274.670654,221.949493 
	C274.836670,221.637146 275.002655,221.324783 275.732025,220.666016 
	C277.942688,217.600845 280.153320,214.535675 282.363983,211.470520 
	C282.595001,211.600723 282.826019,211.730911 283.057037,211.861115 
	C280.939362,213.054611 278.821655,214.248108 276.610901,215.494049 
	C274.852875,210.892288 276.697937,207.562927 279.776001,204.206421 
	C280.437988,204.104675 281.099945,204.002945 282.648163,203.970001 
	C284.121155,203.970490 285.594177,203.970993 287.678680,204.164642 
	C288.505646,205.334869 289.332611,206.505081 290.355804,208.321198 
	C290.807495,210.555573 291.174469,212.811813 291.743591,215.015869 
	C292.068634,216.274796 292.722992,217.448700 293.229065,218.660889 
	C294.093506,217.050018 295.897888,215.246231 295.615570,213.870682 
	C295.115112,211.431839 293.347504,209.253052 292.206573,206.342148 
	C292.800079,206.249451 293.393616,206.156754 294.432800,206.616882 
	C298.863739,207.792267 300.107758,210.934860 300.060791,215.171494 
	C300.033875,217.601059 300.630157,220.037552 301.072601,223.447388 
	C303.004120,219.167206 304.458344,215.944672 305.998535,212.531631 
	C305.464417,212.231415 304.324280,211.590607 302.981293,210.835785 
	C304.154449,209.279572 305.051392,208.089767 305.948334,206.899948 
	C305.375397,206.372238 304.802460,205.844543 304.229553,205.316833 
	C303.629791,207.206192 303.030029,209.095551 302.430298,210.984909 
	C302.067657,210.335693 301.705048,209.686493 301.342407,209.037277 
	C298.824646,207.389206 296.306854,205.741135 293.021759,204.044113 
	C291.472504,203.553192 289.931519,202.686798 288.372162,202.652267 
	C285.444122,202.587433 282.505402,203.003418 278.794281,203.158798 
	C273.629242,206.379379 270.813812,210.336777 274.201324,216.570663 
	C274.659058,217.413010 274.084473,218.816315 273.917786,220.501053 
	C273.750732,220.822495 273.583710,221.143951 273.001221,222.041229 
	C269.583740,226.353058 271.393280,229.973892 274.424286,233.016525 
	C273.755981,234.686768 272.851318,236.006577 272.748138,237.386322 
	C272.466492,241.151489 272.562988,244.943298 272.435730,248.722061 
	C272.272644,253.563095 272.509094,258.277740 275.972778,262.900452 
	C275.324188,265.291046 274.675598,267.681610 273.925018,270.831818 
	C273.939270,271.568176 273.953552,272.304504 274.023041,273.032196 
	C274.023041,273.032196 274.053406,272.985229 273.240570,273.142059 
	C272.887756,280.555695 270.390259,288.132721 275.012909,295.183655 
	C275.305420,295.629791 274.664703,296.687714 273.999878,298.001160 
	C270.117889,302.386353 273.997803,306.828583 273.553802,311.672913 
	C273.100342,313.256287 272.646881,314.839661 272.193420,316.423035 
	C272.601318,316.522003 273.009216,316.621002 273.417084,316.720001 
	C273.938782,314.803070 274.460480,312.886139 275.050995,310.270691 
	C276.181427,308.281128 277.311890,306.291595 278.803101,303.667084 
	C277.086487,304.298096 276.073822,304.670349 275.020142,304.189941 
	C275.003418,302.768433 274.986664,301.346924 275.026276,299.346100 
	C275.094635,298.964233 275.162994,298.582397 275.795563,297.967865 
	C276.858429,297.985107 277.921295,298.002350 279.400238,298.576538 
	C282.355103,299.785278 285.309967,300.994049 288.264832,302.202820 
	C288.472809,301.649384 288.680786,301.095947 288.888763,300.542511 
	C285.670074,299.343872 282.451416,298.145264 278.951569,296.333649 
	C277.604614,294.389526 276.257660,292.445374 274.948700,289.488373 
	C274.934265,283.934021 274.919861,278.379669 274.944336,272.208008 
	C275.055847,271.813721 275.167328,271.419434 275.734619,270.529083 
M336.570587,245.484528 
	C336.985962,246.047897 337.401306,246.611267 337.847137,247.839828 
	C337.928711,248.721420 338.010254,249.603027 338.050049,251.466629 
	C338.068207,253.730331 338.086334,255.994019 338.085754,258.985748 
	C337.490204,260.793671 336.894653,262.601593 335.915497,264.790833 
	C335.515259,265.413666 335.114990,266.036530 334.714722,266.659393 
	C334.953247,266.816223 335.191803,266.973022 335.430328,267.129852 
	C335.996674,266.466248 336.563019,265.802643 337.843872,265.082703 
	C338.779449,265.510712 339.714996,265.938690 341.397308,266.708313 
	C340.652802,265.374115 340.302185,264.745789 339.986389,263.261414 
	C339.968109,262.118286 339.949860,260.975128 339.981598,258.944427 
	C339.452698,254.858643 338.923798,250.772842 338.245392,246.136917 
	C337.838440,245.523148 337.431488,244.909378 336.963013,243.560287 
	C335.088470,241.724030 333.213959,239.887772 331.071075,237.571075 
	C331.045013,237.389511 331.018951,237.207932 331.007202,236.264404 
	C330.725616,234.854233 330.444031,233.444077 330.002014,231.449753 
	C329.970428,231.049042 329.938843,230.648346 329.972137,229.537842 
	C329.687714,228.695786 329.403259,227.853714 328.686157,226.438400 
	C326.264282,224.870056 323.842377,223.301712 321.011139,221.468277 
	C321.011139,219.432724 321.011139,216.703491 320.938446,213.281464 
	C318.395569,211.101639 315.852692,208.921814 313.309845,206.741989 
	C313.151947,206.881302 312.994080,207.020615 312.836212,207.159927 
	C315.015961,209.546021 317.195740,211.932114 319.741394,214.938385 
	C319.804443,216.400009 320.053955,217.882690 319.891846,219.318909 
	C319.550049,222.347595 317.967407,222.276642 315.617371,220.164566 
	C313.857147,219.606232 312.096924,219.047882 310.336700,218.489532 
	C310.164520,218.989792 309.992310,219.490067 309.820129,219.990326 
	C311.489960,220.666458 313.159790,221.342575 315.413635,222.285797 
	C316.642242,223.775635 317.870850,225.265457 319.142334,227.233322 
	C319.236359,227.558090 319.430450,227.803772 319.883209,228.613678 
	C320.100525,229.440063 320.317841,230.266464 320.535156,231.092850 
	C320.760620,230.717407 320.986084,230.341965 321.632294,229.578033 
	C321.494476,228.728668 321.356628,227.879303 321.018738,226.407730 
	C320.904175,225.988586 320.789612,225.569458 321.623383,225.040176 
	C322.259308,224.986816 322.895203,224.933456 324.194366,224.825668 
	C325.505890,226.205597 326.817383,227.585541 328.044800,229.848190 
	C327.658081,233.264130 327.271362,236.680054 326.864532,240.273605 
	C327.840515,240.214493 329.398254,240.120117 331.263641,240.617249 
	C332.929291,242.091309 334.594971,243.565384 336.570587,245.484528 
M323.072662,244.643524 
	C323.030273,245.093918 322.987885,245.544312 322.422546,246.478745 
	C322.317963,247.411789 322.213379,248.344818 322.060089,249.802216 
	C321.822540,250.252426 321.584991,250.702621 320.673706,250.853836 
	C318.940125,248.852936 317.206573,246.852051 315.171997,244.503754 
	C314.364166,246.302277 313.820435,247.512772 313.210907,248.869766 
	C315.353394,250.042587 317.186432,251.046021 319.122467,252.645157 
	C319.758301,253.392715 320.394165,254.140259 321.246460,255.534653 
	C325.210388,260.485901 325.508972,266.179138 324.837189,272.174255 
	C324.069672,279.023621 316.788055,280.217041 313.248657,284.633453 
	C313.645721,285.084198 314.042786,285.534943 314.439850,285.985687 
	C317.671875,283.777435 320.903900,281.569183 324.550049,279.077972 
	C325.955505,280.329681 327.964569,282.118896 329.973602,283.908112 
	C330.372772,283.653534 330.771912,283.398987 331.171082,283.144409 
	C330.538055,281.706970 330.176086,279.255249 329.226776,279.001587 
	C324.196960,277.657593 327.084320,274.174744 327.124603,271.725739 
	C327.173615,268.742828 327.697296,265.670868 328.651825,262.852936 
	C328.979858,261.884491 331.228363,261.578339 332.587402,260.943604 
	C333.667694,260.439056 334.729523,259.894836 335.799561,259.368256 
	C335.566864,258.784302 335.334167,258.200348 335.101471,257.616394 
	C332.448181,258.389496 329.794861,259.162567 326.618225,260.088135 
	C325.536316,257.965668 324.205048,255.353958 323.066864,252.047806 
	C324.582855,249.323578 325.693665,245.874588 330.315674,248.702896 
	C331.326294,248.754227 332.336914,248.805557 333.347534,248.856888 
	C332.141296,247.939651 330.935028,247.022400 328.983734,246.061752 
	C327.993530,245.978455 327.003357,245.895142 326.004852,245.121887 
	C325.699249,244.084839 325.393677,243.047806 324.734863,241.497574 
	C324.145996,240.651215 323.557129,239.804855 322.722443,238.406570 
	C321.976135,238.127701 321.229828,237.848831 320.483521,237.569962 
	C320.667145,238.057007 320.850800,238.544052 321.067505,239.578629 
	C321.397614,240.003891 321.727692,240.429138 322.017670,241.540466 
	C322.303070,242.356003 322.588470,243.171539 323.072662,244.643524 
M304.053253,230.426895 
	C304.050507,231.643799 304.047760,232.860687 303.808807,234.706512 
	C302.230499,235.792847 300.652222,236.879181 298.498810,237.612473 
	C297.353668,236.702927 296.208527,235.793365 295.063385,234.883820 
	C294.767487,235.240768 294.471558,235.597717 294.175659,235.954681 
	C295.762146,238.173172 297.348602,240.391678 299.609070,243.552734 
	C299.908569,240.996231 300.054199,239.753250 300.887665,238.428314 
	C303.961182,237.547089 307.080109,236.793442 310.086243,235.722992 
	C311.320251,235.283539 313.166992,234.224258 309.476288,233.037796 
	C308.646027,233.014664 307.815765,232.991531 306.822968,232.224457 
	C305.741943,229.902267 304.660950,227.580063 303.200226,224.871902 
	C302.613037,224.652969 302.025848,224.434036 300.426910,223.837875 
	C301.720306,225.191483 302.228668,225.723526 302.953430,226.814636 
	C303.339874,227.712524 303.726318,228.610413 304.053253,230.426895 
M305.720367,317.631531 
	C303.646454,318.494110 301.572510,319.356720 298.552155,320.083496 
	C292.460541,320.515991 286.845276,319.524902 282.740143,314.020630 
	C282.327667,314.532654 281.915222,315.044708 281.502747,315.556732 
	C283.866699,318.106628 286.230652,320.656525 288.604218,323.216827 
	C286.675873,324.811707 284.867554,326.307312 282.507751,328.259033 
	C288.860168,329.680023 290.484528,326.857452 290.176025,323.215485 
	C294.350342,322.717255 298.190155,322.258972 302.617157,321.470459 
	C305.075897,320.998962 307.534668,320.527466 310.470551,320.571991 
	C311.984558,320.396271 313.498566,320.220581 315.506989,319.638885 
	C316.691193,318.763214 317.875397,317.887512 319.573364,316.550537 
	C319.460266,315.048187 319.347168,313.545837 319.055176,311.583557 
	C319.055176,311.583557 318.962128,311.098907 318.989258,310.321533 
	C318.498383,308.366791 318.007507,306.412048 317.516632,304.457306 
	C317.135071,304.530334 316.753540,304.603333 316.371979,304.676361 
	C316.618713,308.280975 316.865417,311.885620 316.895508,316.149139 
	C314.258850,316.381744 311.622162,316.614349 308.583008,316.390503 
	C307.741608,316.603058 306.900177,316.815613 305.720367,317.631531 
M267.963684,370.950470 
	C267.963684,314.592133 267.963684,258.233765 267.963684,201.592499 
	C257.314880,200.833572 247.528061,202.186340 237.924530,205.015396 
	C215.476196,211.628326 200.269363,225.575134 194.584045,248.721527 
	C191.789459,260.099060 191.872360,271.640442 192.751709,283.358307 
	C194.261810,303.481628 201.331879,320.552338 217.685867,332.851868 
	C230.834824,342.740967 236.616837,355.900146 237.527863,372.563324 
	C247.138412,372.685059 256.748871,372.823669 266.359802,372.882629 
	C266.882599,372.885834 267.409485,372.223633 267.963684,370.950470 
M170.114639,212.636337 
	C165.923828,219.200241 160.757370,225.351852 157.768875,232.423828 
	C153.184769,243.271606 147.353653,254.333618 152.566147,266.899078 
	C152.977219,267.889954 152.108093,269.761230 151.314804,270.842499 
	C147.675415,275.803101 143.749283,280.553497 140.115677,285.518127 
	C133.455292,294.618225 126.655632,303.636658 120.465370,313.051636 
	C117.540581,317.500061 118.668854,320.861206 123.348381,323.515503 
	C126.879120,325.518188 131.081726,326.305542 134.739944,328.126648 
	C136.702377,329.103577 139.692673,331.311798 139.529419,332.631683 
	C139.077606,336.284241 137.685059,340.039185 135.802170,343.247650 
	C132.513565,348.851410 132.380783,349.662994 137.518036,354.022491 
	C138.393784,354.765594 139.352051,355.411469 140.439697,356.228027 
	C138.965790,358.003204 138.022354,359.384003 136.839188,360.513672 
	C134.362701,362.878235 134.507858,365.055084 136.954590,367.290253 
	C142.308182,372.181000 143.220169,377.804779 140.125992,384.374451 
	C138.872177,387.036652 138.346130,390.045135 137.523392,392.905975 
	C136.270508,397.262329 137.315063,401.157776 140.117325,404.586578 
	C144.993698,410.553162 151.139694,414.007721 159.033188,413.985962 
	C166.861328,413.964355 174.689743,414.026886 182.518005,414.058899 
	C197.241989,414.119110 197.326996,414.098724 201.086884,428.425659 
	C202.667480,434.448486 203.803116,440.588074 205.141037,446.674561 
	C205.579849,446.681183 206.018646,446.687775 206.457458,446.694366 
	C209.000702,428.347534 211.034164,409.911133 214.238647,391.680511 
	C217.118530,375.296570 213.083435,361.167267 203.351089,348.201508 
	C202.653030,347.271484 202.058731,346.263763 201.363815,345.331238 
	C183.218033,320.980255 176.838394,293.512451 180.029495,263.636414 
	C181.991302,245.269150 189.273026,229.129684 201.728302,215.455994 
	C218.834244,196.676743 240.815094,187.348541 265.325836,183.023041 
	C266.228119,182.863800 267.082581,182.433823 267.959351,182.130005 
	C256.815674,180.990891 245.827133,180.205078 234.989212,181.148880 
	C209.771561,183.344894 187.851913,193.049469 170.114639,212.636337 
M331.575378,357.103607 
	C324.887756,367.813538 325.188293,379.450714 326.912415,391.328735 
	C329.537354,409.412689 332.044769,427.513641 334.602112,445.607391 
	C335.106689,445.605682 335.611298,445.603943 336.115875,445.602234 
	C336.723907,442.919708 337.233856,440.210297 337.959961,437.560150 
	C339.574036,431.669159 341.177185,425.770111 343.018921,419.948425 
	C344.136932,416.414307 346.550812,414.928864 350.574799,415.030212 
	C361.065826,415.294525 371.591797,415.431061 382.058075,414.826508 
	C386.503479,414.569702 391.271210,413.084259 395.127319,410.841614 
	C403.329132,406.071625 405.387695,399.488800 402.636444,390.378296 
	C401.726959,387.366516 400.171112,384.452728 399.836212,381.392822 
	C399.518951,378.494385 399.363342,374.580292 400.977203,372.658997 
	C405.486237,367.291077 408.164886,362.644501 400.515930,357.673340 
	C402.016510,356.368469 402.961548,355.466705 403.987427,354.668915 
	C407.751678,351.741669 408.672394,348.682343 405.449310,344.510620 
	C403.804596,342.381805 403.093811,339.475525 402.190308,336.841919 
	C400.470306,331.828156 401.722137,330.251465 406.821655,328.852356 
	C410.752106,327.774048 414.624481,326.142822 418.185333,324.153656 
	C421.820831,322.122772 423.064331,318.689056 420.935181,314.774506 
	C418.877411,310.991180 416.859894,307.120209 414.278931,303.699554 
	C406.564056,293.474609 398.650940,283.396149 390.658356,273.385742 
	C388.471008,270.646149 388.122345,268.235901 389.130707,264.797821 
	C390.125000,261.407654 390.424927,257.462585 389.773712,253.996918 
	C384.737457,227.194351 370.093872,207.210052 346.237030,194.003510 
	C330.947449,185.539597 314.279938,182.238007 297.066650,181.109818 
	C293.913666,180.903168 290.729431,180.941040 287.571899,181.104019 
	C284.639313,181.255386 281.723114,181.724716 278.799713,182.054062 
	C302.263458,187.289505 323.295471,196.526093 339.446411,214.707382 
	C357.891937,235.471756 364.024780,260.007965 361.210144,287.283569 
	C358.902557,309.645630 351.482239,329.857880 337.437286,347.560577 
	C335.285919,350.272278 333.761444,353.481384 331.575378,357.103607 
M259.500031,375.978882 
	C252.059418,375.978882 244.618805,375.978882 237.193665,375.978882 
	C237.193665,379.983307 237.193665,383.374603 237.193665,386.741730 
	C258.622314,386.741730 279.699921,386.741730 300.770020,386.741730 
	C300.770020,383.038177 300.770020,379.646759 300.770020,375.978882 
	C287.118958,375.978882 273.809479,375.978882 259.500031,375.978882 
M282.495880,402.087921 
	C287.248871,402.087921 292.001862,402.087921 296.602325,402.087921 
	C296.602325,397.989685 296.602325,394.603119 296.602325,391.311157 
	C277.285126,391.311157 258.366669,391.311157 239.319397,391.311157 
	C239.319397,394.982147 239.319397,398.370056 239.319397,402.087952 
	C253.576736,402.087952 267.536774,402.087952 282.495880,402.087921 
M260.501495,417.749786 
	C271.242828,417.749786 281.984161,417.749786 292.743347,417.749786 
	C292.743347,413.827911 292.743347,410.574036 292.743347,407.302185 
	C275.992188,407.302185 259.509277,407.302185 243.253387,407.302185 
	C243.253387,410.953705 243.253387,414.189972 243.253387,417.749634 
	C248.916351,417.749634 254.209320,417.749634 260.501495,417.749786 
M286.276855,258.738342 
	C286.276855,261.081085 286.276855,263.423859 286.276855,266.413422 
	C285.121490,268.920135 278.750610,265.993896 278.848175,271.211029 
	C283.346771,270.194794 287.757965,269.198303 291.712769,268.304901 
	C286.225250,261.927734 288.636108,257.070038 296.833313,253.190979 
	C293.037231,252.124847 290.757141,251.484497 288.255249,250.781845 
	C287.750031,253.272385 287.245178,255.761261 286.276855,258.738342 
M348.227295,287.308777 
	C345.370148,289.309265 342.513000,291.309723 340.473724,292.737549 
	C343.445251,295.415497 345.859558,297.591309 348.273865,299.767090 
	C345.141754,295.561218 346.935028,291.686554 348.227295,287.308777 
M315.320343,296.700470 
	C317.162109,294.275085 319.003876,291.849701 321.195801,288.963165 
	C315.429596,289.481415 312.536560,293.395782 315.320343,296.700470 
M317.198151,239.253418 
	C316.692078,238.016983 316.186005,236.780563 315.679962,235.544128 
	C315.188995,235.670013 314.698059,235.795914 314.207123,235.921799 
	C314.625519,238.498154 315.043945,241.074524 315.462341,243.650879 
	C315.899689,243.670441 316.337067,243.690018 316.774414,243.709595 
	C317.001129,242.442383 317.227875,241.175186 317.198151,239.253418 
M295.628174,232.940979 
	C295.711243,232.404755 295.900818,231.407242 295.862152,231.398300 
	C293.646240,230.886658 291.411377,230.457138 289.178345,230.019562 
	C289.066132,230.444443 288.953888,230.869324 288.841644,231.294205 
	C290.873352,231.863770 292.905060,232.433350 295.628174,232.940979 
M346.713959,284.706940 
	C347.412933,284.773895 348.111908,284.840851 348.810883,284.907806 
	C348.713654,284.455261 348.616425,284.002716 348.519196,283.550201 
	C347.804504,283.762787 347.089813,283.975372 346.713959,284.706940 
M309.713867,207.028000 
	C309.505829,207.277969 309.297760,207.527939 309.089722,207.777939 
	C309.699585,207.772675 310.309448,207.767410 310.919312,207.762131 
	C310.700500,207.516693 310.481689,207.271240 309.713867,207.028000 
M287.166229,217.666992 
	C286.920013,217.892197 286.673798,218.117401 286.427582,218.342621 
	C286.951172,218.498337 287.474762,218.654068 287.998352,218.809799 
	C287.877777,218.496841 287.757233,218.183868 287.166229,217.666992 
M286.544495,250.510086 
	C286.224121,250.269577 285.908051,249.855026 285.581879,249.846893 
	C285.346069,249.841003 285.096771,250.374893 284.853485,250.668060 
	C285.280731,250.717972 285.707977,250.767883 286.544495,250.510086 
M331.792572,289.366058 
	C331.746155,289.726288 331.699738,290.086548 331.653351,290.446777 
	C331.911011,290.450745 332.168701,290.454712 332.426361,290.458649 
	C332.384796,290.097046 332.343231,289.735443 331.792572,289.366058 
M297.578003,325.578247 
	C297.600403,325.939453 297.622772,326.300690 297.645142,326.661865 
	C297.902954,326.587494 298.160767,326.513123 298.418579,326.438782 
	C298.282135,326.189453 298.145721,325.940125 297.578003,325.578247 
M311.153412,293.964233 
	C311.412140,293.810364 311.801697,293.707367 311.887543,293.486328 
	C311.954468,293.314056 311.643616,292.995026 311.500641,292.741211 
	C311.357391,292.995300 311.214111,293.249390 311.153412,293.964233 
z"/>
<path fill="#010101" opacity="1.000000" stroke="none" 
	d="
M170.349518,212.370590 
	C187.851913,193.049469 209.771561,183.344894 234.989212,181.148880 
	C245.827133,180.205078 256.815674,180.990891 267.959351,182.130005 
	C267.082581,182.433823 266.228119,182.863800 265.325836,183.023041 
	C240.815094,187.348541 218.834244,196.676743 201.728302,215.455994 
	C189.273026,229.129684 181.991302,245.269150 180.029495,263.636414 
	C176.838394,293.512451 183.218033,320.980255 201.363815,345.331238 
	C202.058731,346.263763 202.653030,347.271484 203.351089,348.201508 
	C213.083435,361.167267 217.118530,375.296570 214.238647,391.680511 
	C211.034164,409.911133 209.000702,428.347534 206.457458,446.694366 
	C206.018646,446.687775 205.579849,446.681183 205.141037,446.674561 
	C203.803116,440.588074 202.667480,434.448486 201.086884,428.425659 
	C197.326996,414.098724 197.241989,414.119110 182.518005,414.058899 
	C174.689743,414.026886 166.861328,413.964355 159.033188,413.985962 
	C151.139694,414.007721 144.993698,410.553162 140.117325,404.586578 
	C137.315063,401.157776 136.270508,397.262329 137.523392,392.905975 
	C138.346130,390.045135 138.872177,387.036652 140.125992,384.374451 
	C143.220169,377.804779 142.308182,372.181000 136.954590,367.290253 
	C134.507858,365.055084 134.362701,362.878235 136.839188,360.513672 
	C138.022354,359.384003 138.965790,358.003204 140.439697,356.228027 
	C139.352051,355.411469 138.393784,354.765594 137.518036,354.022491 
	C132.380783,349.662994 132.513565,348.851410 135.802170,343.247650 
	C137.685059,340.039185 139.077606,336.284241 139.529419,332.631683 
	C139.692673,331.311798 136.702377,329.103577 134.739944,328.126648 
	C131.081726,326.305542 126.879120,325.518188 123.348381,323.515503 
	C118.668854,320.861206 117.540581,317.500061 120.465370,313.051636 
	C126.655632,303.636658 133.455292,294.618225 140.115677,285.518127 
	C143.749283,280.553497 147.675415,275.803101 151.314804,270.842499 
	C152.108093,269.761230 152.977219,267.889954 152.566147,266.899078 
	C147.353653,254.333618 153.184769,243.271606 157.768875,232.423828 
	C160.757370,225.351852 165.923828,219.200241 170.349518,212.370590 
z"/>
<path fill="#010101" opacity="1.000000" stroke="none" 
	d="
M331.761200,356.782043 
	C333.761444,353.481384 335.285919,350.272278 337.437286,347.560577 
	C351.482239,329.857880 358.902557,309.645630 361.210144,287.283569 
	C364.024780,260.007965 357.891937,235.471756 339.446411,214.707382 
	C323.295471,196.526093 302.263458,187.289505 278.799713,182.054062 
	C281.723114,181.724716 284.639313,181.255386 287.571899,181.104019 
	C290.729431,180.941040 293.913666,180.903168 297.066650,181.109818 
	C314.279938,182.238007 330.947449,185.539597 346.237030,194.003510 
	C370.093872,207.210052 384.737457,227.194351 389.773712,253.996918 
	C390.424927,257.462585 390.125000,261.407654 389.130707,264.797821 
	C388.122345,268.235901 388.471008,270.646149 390.658356,273.385742 
	C398.650940,283.396149 406.564056,293.474609 414.278931,303.699554 
	C416.859894,307.120209 418.877411,310.991180 420.935181,314.774506 
	C423.064331,318.689056 421.820831,322.122772 418.185333,324.153656 
	C414.624481,326.142822 410.752106,327.774048 406.821655,328.852356 
	C401.722137,330.251465 400.470306,331.828156 402.190308,336.841919 
	C403.093811,339.475525 403.804596,342.381805 405.449310,344.510620 
	C408.672394,348.682343 407.751678,351.741669 403.987427,354.668915 
	C402.961548,355.466705 402.016510,356.368469 400.515930,357.673340 
	C408.164886,362.644501 405.486237,367.291077 400.977203,372.658997 
	C399.363342,374.580292 399.518951,378.494385 399.836212,381.392822 
	C400.171112,384.452728 401.726959,387.366516 402.636444,390.378296 
	C405.387695,399.488800 403.329132,406.071625 395.127319,410.841614 
	C391.271210,413.084259 386.503479,414.569702 382.058075,414.826508 
	C371.591797,415.431061 361.065826,415.294525 350.574799,415.030212 
	C346.550812,414.928864 344.136932,416.414307 343.018921,419.948425 
	C341.177185,425.770111 339.574036,431.669159 337.959961,437.560150 
	C337.233856,440.210297 336.723907,442.919708 336.115875,445.602234 
	C335.611298,445.603943 335.106689,445.605682 334.602112,445.607391 
	C332.044769,427.513641 329.537354,409.412689 326.912415,391.328735 
	C325.188293,379.450714 324.887756,367.813538 331.761200,356.782043 
z"/>
<path fill="#010000" opacity="1.000000" stroke="none" 
	d="
M236.973282,371.919769 
	C236.616837,355.900146 230.834824,342.740967 217.685867,332.851868 
	C201.331879,320.552338 194.261810,303.481628 192.751709,283.358307 
	C191.872360,271.640442 191.789459,260.099060 194.584045,248.721527 
	C200.269363,225.575134 215.476196,211.628326 237.924530,205.015396 
	C247.528061,202.186340 257.314880,200.833572 267.963684,201.592499 
	C267.963684,258.233765 267.963684,314.592133 267.488251,371.459442 
	C256.999634,371.952179 246.986465,371.935974 236.973282,371.919769 
z"/>
<path fill="#010000" opacity="1.000000" stroke="none" 
	d="
M260.000000,375.978882 
	C273.809479,375.978882 287.118958,375.978882 300.770020,375.978882 
	C300.770020,379.646759 300.770020,383.038177 300.770020,386.741730 
	C279.699921,386.741730 258.622314,386.741730 237.193665,386.741730 
	C237.193665,383.374603 237.193665,379.983307 237.193665,375.978882 
	C244.618805,375.978882 252.059418,375.978882 260.000000,375.978882 
z"/>
<path fill="#020101" opacity="1.000000" stroke="none" 
	d="
M281.996338,402.087952 
	C267.536774,402.087952 253.576736,402.087952 239.319397,402.087952 
	C239.319397,398.370056 239.319397,394.982147 239.319397,391.311157 
	C258.366669,391.311157 277.285126,391.311157 296.602325,391.311157 
	C296.602325,394.603119 296.602325,397.989685 296.602325,402.087921 
	C292.001862,402.087921 287.248871,402.087921 281.996338,402.087952 
z"/>
<path fill="#090402" opacity="1.000000" stroke="none" 
	d="
M260.001892,417.749695 
	C254.209320,417.749634 248.916351,417.749634 243.253387,417.749634 
	C243.253387,414.189972 243.253387,410.953705 243.253387,407.302185 
	C259.509277,407.302185 275.992188,407.302185 292.743347,407.302185 
	C292.743347,410.574036 292.743347,413.827911 292.743347,417.749786 
	C281.984161,417.749786 271.242828,417.749786 260.001892,417.749695 
z"/>
<path fill="#F86A09" opacity="1.000000" stroke="none" 
	d="
M322.873779,252.742249 
	C324.205048,255.353958 325.536316,257.965668 326.618225,260.088135 
	C329.794861,259.162567 332.448181,258.389496 335.101471,257.616394 
	C335.334167,258.200348 335.566864,258.784302 335.799561,259.368256 
	C334.729523,259.894836 333.667694,260.439056 332.587402,260.943604 
	C331.228363,261.578339 328.979858,261.884491 328.651825,262.852936 
	C327.697296,265.670868 327.173615,268.742828 327.124603,271.725739 
	C327.084320,274.174744 324.196960,277.657593 329.226776,279.001587 
	C330.176086,279.255249 330.538055,281.706970 331.171082,283.144409 
	C330.771912,283.398987 330.372772,283.653534 329.973602,283.908112 
	C327.964569,282.118896 325.955505,280.329681 324.550049,279.077972 
	C320.903900,281.569183 317.671875,283.777435 314.439850,285.985687 
	C314.042786,285.534943 313.645721,285.084198 313.248657,284.633453 
	C316.788055,280.217041 324.069672,279.023621 324.837189,272.174255 
	C325.508972,266.179138 325.210388,260.485901 321.449219,255.169998 
	C322.059204,254.117645 322.466492,253.429947 322.873779,252.742249 
z"/>
<path fill="#1C130D" opacity="1.000000" stroke="none" 
	d="
M275.875244,238.361893 
	C275.579926,240.290680 275.284607,242.219467 274.662994,244.803558 
	C274.528717,249.138535 274.720673,252.818207 274.912659,256.497894 
	C275.258179,259.772644 276.696808,261.440552 280.707642,259.866516 
	C279.659943,261.759521 278.824890,263.268280 277.654755,264.976074 
	C276.871246,264.167847 276.422821,263.160583 275.974426,262.153290 
	C272.509094,258.277740 272.272644,253.563095 272.435730,248.722061 
	C272.562988,244.943298 272.466492,241.151489 272.748138,237.386322 
	C272.851318,236.006577 273.755981,234.686768 274.424286,233.016525 
	C271.393280,229.973892 269.583740,226.353058 273.399475,221.936005 
	C273.927795,221.947433 274.057861,222.064102 274.187958,222.180756 
	C274.116425,222.546127 274.044861,222.911514 273.685059,223.801147 
	C273.560028,225.706589 273.723236,227.087738 273.886475,228.468903 
	C275.318207,229.509918 276.749969,230.550949 278.448730,231.715515 
	C278.722778,232.197388 278.729767,232.555710 278.736755,232.914017 
	C277.880188,233.351730 277.023651,233.789444 275.747131,234.694214 
	C275.509857,236.228149 275.692566,237.295013 275.875244,238.361893 
z"/>
<path fill="#F86A09" opacity="1.000000" stroke="none" 
	d="
M286.508575,258.494232 
	C287.245178,255.761261 287.750031,253.272385 288.255249,250.781845 
	C290.757141,251.484497 293.037231,252.124847 296.833313,253.190979 
	C288.636108,257.070038 286.225250,261.927734 291.712769,268.304901 
	C287.757965,269.198303 283.346771,270.194794 278.848175,271.211029 
	C278.750610,265.993896 285.121490,268.920135 286.276855,266.413422 
	C286.276855,263.423859 286.276855,261.081085 286.508575,258.494232 
z"/>
<path fill="#F86A09" opacity="1.000000" stroke="none" 
	d="
M302.029938,321.800659 
	C298.190155,322.258972 294.350342,322.717255 290.176025,323.215485 
	C290.484528,326.857452 288.860168,329.680023 282.507751,328.259033 
	C284.867554,326.307312 286.675873,324.811707 288.604218,323.216827 
	C286.230652,320.656525 283.866699,318.106628 281.502747,315.556732 
	C281.915222,315.044708 282.327667,314.532654 282.740143,314.020630 
	C286.845276,319.524902 292.460541,320.515991 299.150085,320.366241 
	C300.508667,321.032867 301.269287,321.416748 302.029938,321.800659 
z"/>
<path fill="#291D16" opacity="1.000000" stroke="none" 
	d="
M318.306183,358.112976 
	C320.552307,356.076721 322.798431,354.040466 325.346771,351.420349 
	C325.772430,349.900208 325.895874,348.963867 326.019318,348.027557 
	C326.522766,346.001068 326.522766,346.001068 322.505707,345.674164 
	C322.062653,345.474426 321.848633,345.083221 322.078003,344.977478 
	C322.530884,344.627014 322.754364,344.382355 323.404053,344.095520 
	C326.218597,343.702240 328.606903,343.351135 330.995239,343.000000 
	C332.987305,341.394226 334.979401,339.788452 337.314514,337.845306 
	C338.008118,337.433594 338.358643,337.359283 338.709198,337.284943 
	C337.051422,339.466400 335.831696,342.652863 333.639557,343.608459 
	C329.743591,345.306702 328.171631,347.827728 326.926239,351.652283 
	C324.548096,358.955322 319.011475,361.679321 310.217133,360.115021 
	C309.949677,359.606018 309.949036,359.153564 309.949036,359.153564 
	C312.017548,359.072815 314.086060,358.992096 316.851257,358.844482 
	C317.800690,358.556091 318.053436,358.334534 318.306183,358.112976 
z"/>
<path fill="#211711" opacity="1.000000" stroke="none" 
	d="
M309.375122,256.123596 
	C311.208893,255.293671 313.042694,254.463745 314.876465,253.633820 
	C315.201172,253.944901 315.525909,254.255981 315.850616,254.567062 
	C314.732697,255.546341 313.614777,256.525604 311.860931,257.733032 
	C309.645905,258.278717 308.066833,258.596252 306.487732,258.913788 
	C305.891724,262.424438 301.798920,265.356171 304.908936,270.109131 
	C305.053467,271.517670 305.032013,272.269958 305.010559,273.022247 
	C303.624359,274.358063 302.238129,275.693878 300.231415,277.017273 
	C299.106628,276.748444 298.602386,276.491974 298.098114,276.235504 
	C299.378815,275.447052 300.659485,274.658569 302.272217,273.322510 
	C302.443848,271.744049 302.283447,270.713196 302.123047,269.682312 
	C302.102509,268.280853 301.543121,266.554718 302.157166,265.535614 
	C304.485321,261.671478 303.549805,258.276123 301.289368,254.452026 
	C301.215790,254.035904 301.305664,254.086685 301.305664,254.086685 
	C302.598694,254.732742 303.891754,255.378784 305.723877,256.298340 
	C307.300385,256.422424 308.337738,256.273010 309.375122,256.123596 
z"/>
<path fill="#201610" opacity="1.000000" stroke="none" 
	d="
M328.092346,311.477600 
	C328.643646,310.834900 329.194946,310.192230 330.241089,309.319000 
	C331.493896,308.728394 332.251862,308.368286 333.009796,308.008179 
	C338.632935,305.541870 336.991699,301.698456 335.273926,297.364838 
	C336.068695,296.959412 336.538513,296.968079 337.008362,296.976746 
	C338.348755,299.567444 340.118958,301.012604 343.519653,299.518524 
	C343.942200,300.503479 343.934601,301.228119 343.926971,301.952728 
	C340.849426,302.520905 338.391327,303.394836 336.943207,306.887543 
	C336.086823,308.953003 333.098419,310.134491 330.696381,312.003143 
	C330.745026,312.913452 330.828918,314.483490 330.656677,316.660889 
	C330.250061,318.167664 330.099518,319.066986 329.948944,319.966339 
	C329.350708,321.077484 328.752441,322.188629 327.805359,323.674683 
	C327.285309,324.096649 327.114044,324.143707 326.942810,324.190796 
	C327.297119,322.709534 327.651459,321.228302 328.305573,319.136963 
	C328.434357,316.177094 328.263336,313.827362 328.092346,311.477600 
z"/>
<path fill="#F86A09" opacity="1.000000" stroke="none" 
	d="
M273.987915,219.959885 
	C274.084473,218.816315 274.659058,217.413010 274.201324,216.570663 
	C270.813812,210.336777 273.629242,206.379379 279.141602,203.393097 
	C279.474731,203.905502 279.423645,204.176666 279.335724,204.440887 
	C276.697937,207.562927 274.852875,210.892288 276.610901,215.494049 
	C278.821655,214.248108 280.939362,213.054611 283.057037,211.861115 
	C282.826019,211.730911 282.595001,211.600723 282.363983,211.470520 
	C280.153320,214.535675 277.942688,217.600845 275.346313,220.556183 
	C274.636383,220.284195 274.312134,220.122040 273.987915,219.959885 
z"/>
<path fill="#F86A09" opacity="1.000000" stroke="none" 
	d="
M301.214142,254.087494 
	C300.087952,253.302353 298.308014,252.683609 297.945374,251.593430 
	C295.621033,244.605545 290.902771,241.519272 283.653931,241.973129 
	C282.926025,242.018692 282.173248,241.667694 281.146820,240.425079 
	C282.418365,239.796967 283.689880,239.168854 285.019409,238.512085 
	C284.679047,237.553421 284.266113,236.390274 283.548309,234.368332 
	C290.422760,240.484985 298.677765,244.153061 301.087982,253.774673 
	C301.305664,254.086685 301.215790,254.035904 301.214142,254.087494 
z"/>
<path fill="#F86A09" opacity="1.000000" stroke="none" 
	d="
M293.789093,204.093063 
	C296.306854,205.741135 298.824646,207.389206 301.342407,209.037277 
	C301.705048,209.686493 302.067657,210.335693 302.430298,210.984909 
	C303.030029,209.095551 303.629791,207.206192 304.229553,205.316833 
	C304.802460,205.844543 305.375397,206.372238 305.948334,206.899948 
	C305.051392,208.089767 304.154449,209.279572 302.981293,210.835785 
	C304.324280,211.590607 305.464417,212.231415 305.998535,212.531631 
	C304.458344,215.944672 303.004120,219.167206 301.072601,223.447388 
	C300.630157,220.037552 300.033875,217.601059 300.060791,215.171494 
	C300.107758,210.934860 298.863739,207.792267 294.244904,206.007965 
	C293.967682,204.963715 293.878387,204.528381 293.789093,204.093063 
z"/>
<path fill="#150F0C" opacity="1.000000" stroke="none" 
	d="
M321.211578,229.966522 
	C320.986084,230.341965 320.760620,230.717407 320.535156,231.092865 
	C320.317841,230.266464 320.100525,229.440063 319.828766,228.040100 
	C319.549377,227.229431 319.324432,226.992355 319.099487,226.755280 
	C317.870850,225.265457 316.642242,223.775635 315.166199,221.832031 
	C315.262878,221.135513 315.607056,220.892746 315.951202,220.649979 
	C317.967407,222.276642 319.550049,222.347595 319.891846,219.318909 
	C320.053955,217.882690 319.804443,216.400009 319.831360,214.531113 
	C320.284576,214.073975 320.647858,214.024124 321.011139,213.974258 
	C321.011139,216.703491 321.011139,219.432724 321.011139,221.468277 
	C323.842377,223.301712 326.264282,224.870056 328.882385,227.052246 
	C329.054810,228.099304 329.031006,228.532516 328.787598,228.971252 
	C328.568054,228.976791 328.128906,228.965469 328.128906,228.965469 
	C326.817383,227.585541 325.505890,226.205597 323.644348,224.611115 
	C322.287903,224.647827 321.481476,224.899078 320.675079,225.150330 
	C320.789612,225.569458 320.904175,225.988586 321.057526,227.083466 
	C321.134735,228.494995 321.173157,229.230759 321.211578,229.966522 
z"/>
<path fill="#1F1612" opacity="1.000000" stroke="none" 
	d="
M293.017639,312.163391 
	C289.450348,312.163391 285.883087,312.163391 282.836914,312.163391 
	C283.941864,311.490143 285.703339,310.416901 288.130493,309.146912 
	C290.204437,308.654449 291.612671,308.358704 293.020905,308.062988 
	C293.020905,308.062988 293.042725,308.035675 293.314453,307.803650 
	C293.425720,306.286224 293.265259,305.000824 293.104767,303.715393 
	C293.346222,303.207123 293.587677,302.698853 293.829163,302.190582 
	C294.388245,302.675995 294.947327,303.161407 295.740112,304.240173 
	C295.989380,305.896942 296.004944,306.960358 296.020508,308.023773 
	C293.977142,311.301361 296.705658,310.193176 298.562805,310.502441 
	C299.492004,311.102844 299.970795,311.500610 300.449585,311.898346 
	C299.518890,311.931488 298.588226,311.964630 296.923462,312.016907 
	C295.132172,312.078491 294.074890,312.120941 293.017639,312.163391 
z"/>
<path fill="#F86A09" opacity="1.000000" stroke="none" 
	d="
M291.734680,283.162598 
	C290.470459,285.148438 289.206238,287.134277 287.668915,289.549133 
	C283.416107,284.883301 280.235962,288.570892 276.432312,290.585449 
	C276.266510,286.472961 277.333771,284.082031 280.903137,284.978729 
	C284.644440,285.918701 287.176208,284.346863 290.164581,282.520569 
	C290.932434,282.858582 291.333527,283.010559 291.734680,283.162598 
z"/>
<path fill="#1F150F" opacity="1.000000" stroke="none" 
	d="
M309.960938,359.077332 
	C309.949036,359.153564 309.949677,359.606018 309.931061,359.831299 
	C308.228546,360.080750 306.544647,360.104919 304.352417,359.936951 
	C303.571136,359.498901 303.298126,359.253021 303.025146,359.007111 
	C300.651367,357.435760 298.277557,355.864380 295.317078,354.065369 
	C294.536499,353.733154 294.342590,353.628540 294.148712,353.523956 
	C294.446472,352.995087 294.744263,352.466248 295.334045,351.380524 
	C295.701965,349.888245 295.777832,348.952850 295.853699,348.017426 
	C296.176819,347.482330 296.499939,346.947235 296.922729,346.247101 
	C297.590912,348.815704 298.191742,351.125427 298.792572,353.435120 
	C300.337311,352.433685 301.882050,351.432251 303.780334,350.386719 
	C304.267151,350.601624 304.463928,350.796570 304.724182,350.927460 
	C303.598511,352.418549 302.472809,353.909637 301.050293,355.793884 
	C302.658936,356.553558 304.303497,357.330231 306.539398,358.395508 
	C308.095337,358.741333 309.059967,358.798523 310.024597,358.855713 
	C310.024597,358.855713 309.972870,359.001099 309.960938,359.077332 
z"/>
<path fill="#18100C" opacity="1.000000" stroke="none" 
	d="
M334.857788,286.021606 
	C335.256439,285.351196 335.655121,284.680756 336.336090,283.405457 
	C336.415131,280.861908 336.211823,278.923218 336.008514,276.984528 
	C335.713257,275.647003 335.417999,274.309479 335.122742,272.971954 
	C335.381226,272.877563 335.639709,272.783173 335.898163,272.688782 
	C336.799927,274.497131 337.701721,276.305450 338.846222,278.600586 
	C339.702820,277.563538 340.360168,276.767700 341.352325,275.326477 
	C341.775543,272.779572 341.863922,270.878021 341.952332,268.976471 
	C342.416229,270.332123 342.836853,271.704620 343.355286,273.039093 
	C343.967041,274.613708 344.663422,276.155487 345.655304,278.180145 
	C345.663239,279.087891 345.339020,279.526947 345.014801,279.966003 
	C343.419098,276.878754 341.781067,278.103790 340.380798,280.049316 
	C339.196991,281.694122 338.280212,283.531036 336.759033,285.668335 
	C335.801147,286.043030 335.329437,286.032318 334.857788,286.021606 
z"/>
<path fill="#18110D" opacity="1.000000" stroke="none" 
	d="
M274.910706,290.501251 
	C276.257660,292.445374 277.604614,294.389526 279.031311,296.908752 
	C279.068756,297.662415 279.026459,297.841003 278.984161,298.019592 
	C277.921295,298.002350 276.858429,297.985107 275.322418,297.896973 
	C274.718903,297.704346 274.588531,297.582672 274.458130,297.461029 
	C274.664703,296.687714 275.305420,295.629791 275.012909,295.183655 
	C270.390259,288.132721 272.887756,280.555695 273.663391,273.530151 
	C274.361023,279.445923 274.635864,284.973572 274.910706,290.501251 
z"/>
<path fill="#F86A09" opacity="1.000000" stroke="none" 
	d="
M348.475769,287.560242 
	C346.935028,291.686554 345.141754,295.561218 348.273865,299.767090 
	C345.859558,297.591309 343.445251,295.415497 340.473724,292.737549 
	C342.513000,291.309723 345.370148,289.309265 348.475769,287.560242 
z"/>
<path fill="#F86A09" opacity="1.000000" stroke="none" 
	d="
M337.055695,296.653137 
	C336.538513,296.968079 336.068695,296.959412 335.247681,296.988953 
	C333.326813,299.129364 332.074707,301.631195 330.088684,303.209625 
	C328.447388,304.514130 325.938843,304.727417 323.370270,304.513428 
	C328.239410,302.497314 332.055115,300.070465 333.228088,294.522552 
	C333.410797,293.658478 336.426300,293.393402 339.291168,292.482880 
	C338.121948,294.538330 337.612488,295.433899 337.055695,296.653137 
z"/>
<path fill="#120D0B" opacity="1.000000" stroke="none" 
	d="
M302.323547,321.635559 
	C301.269287,321.416748 300.508667,321.032867 299.623291,320.434143 
	C301.572510,319.356720 303.646454,318.494110 306.252625,317.273804 
	C307.518433,316.893036 308.251984,316.869995 308.985504,316.846954 
	C311.622162,316.614349 314.258850,316.381744 317.278625,315.550751 
	C318.095215,313.667877 318.528656,312.383392 318.962128,311.098907 
	C318.962128,311.098907 319.055176,311.583557 319.123657,312.227173 
	C319.147949,314.251129 319.103760,315.631500 319.059601,317.011841 
	C317.875397,317.887512 316.691193,318.763214 314.841553,319.817627 
	C312.781891,320.016266 311.387665,320.036102 309.993408,320.055969 
	C307.534668,320.527466 305.075897,320.998962 302.323547,321.635559 
z"/>
<path fill="#211813" opacity="1.000000" stroke="none" 
	d="
M299.073914,237.965500 
	C300.652222,236.879181 302.230499,235.792847 304.211823,234.171600 
	C304.447479,232.260559 304.280090,230.884430 304.112732,229.508301 
	C303.726318,228.610413 303.339874,227.712524 303.070679,226.298096 
	C303.318604,225.606979 303.449280,225.432419 303.579956,225.257858 
	C304.660950,227.580063 305.741943,229.902267 306.992371,232.930786 
	C308.209808,233.464294 309.257782,233.291473 310.305786,233.118652 
	C313.166992,234.224258 311.320251,235.283539 310.086243,235.722992 
	C307.080109,236.793442 303.961182,237.547089 300.396851,238.312744 
	C299.637177,238.089325 299.359802,238.012100 299.073914,237.965500 
z"/>
<path fill="#211712" opacity="1.000000" stroke="none" 
	d="
M322.970337,252.395035 
	C322.466492,253.429947 322.059204,254.117645 321.341003,254.846573 
	C320.394165,254.140259 319.758301,253.392715 319.391266,252.287109 
	C320.222534,251.670319 320.784973,251.411575 321.347443,251.152817 
	C321.584991,250.702621 321.822540,250.252426 322.362122,249.311066 
	C322.757904,247.878189 322.851685,246.936447 322.945496,245.994705 
	C322.987885,245.544312 323.030273,245.093918 323.015656,243.969681 
	C322.658356,242.482025 322.358093,241.668213 322.057800,240.854401 
	C321.727692,240.429138 321.397614,240.003891 321.372528,239.266510 
	C322.107788,238.955750 322.538055,238.957108 322.968262,238.958496 
	C323.557129,239.804855 324.145996,240.651215 324.872131,242.119766 
	C325.343994,243.765259 325.678558,244.788544 326.013123,245.811829 
	C327.003357,245.895142 327.993530,245.978455 329.471680,246.418427 
	C329.977417,247.238144 329.995178,247.701172 330.012939,248.164215 
	C325.693665,245.874588 324.582855,249.323578 322.970337,252.395035 
z"/>
<path fill="#1B120E" opacity="1.000000" stroke="none" 
	d="
M275.648651,364.128479 
	C278.749359,365.465027 281.850067,366.801575 285.548462,368.362579 
	C287.169189,368.424927 288.192230,368.262787 289.215240,368.100647 
	C289.215240,368.100647 289.631317,368.128723 290.185028,368.064362 
	C291.472229,367.901184 292.205719,367.802368 292.939209,367.703552 
	C293.105225,367.775726 293.271240,367.847931 293.715210,367.960175 
	C293.993195,368.000214 293.922882,368.026398 293.922882,368.026398 
	C290.104889,368.616364 286.243622,369.834930 282.484100,369.575989 
	C279.963898,369.402374 277.588104,367.133026 275.203217,365.247681 
	C275.388733,364.505432 275.518677,364.316956 275.648651,364.128479 
z"/>
<path fill="#F86A09" opacity="1.000000" stroke="none" 
	d="
M272.003662,325.996338 
	C273.929291,329.905579 275.854889,333.814850 278.253632,338.684570 
	C275.512543,338.428223 274.433685,338.327332 272.723694,338.230042 
	C271.745361,338.200073 271.398163,338.166473 271.050903,338.132874 
	C271.352783,334.285950 271.654663,330.439056 271.978271,326.296082 
	C272.000000,326.000000 272.003662,325.996338 272.003662,325.996338 
z"/>
<path fill="#18100C" opacity="1.000000" stroke="none" 
	d="
M339.370361,313.102661 
	C340.100372,312.786041 340.830414,312.469452 342.085632,312.051636 
	C342.771179,312.303802 342.931488,312.657135 343.091797,313.010468 
	C339.622375,316.709167 341.171509,321.039093 341.550323,325.768005 
	C341.373718,326.580322 341.185028,326.834076 340.978668,327.074707 
	C339.394409,325.720184 337.810120,324.365692 336.680878,323.400208 
	C337.407654,321.643982 338.420593,319.196167 339.221863,316.013947 
	C339.130219,314.553925 339.250305,313.828278 339.370361,313.102661 
z"/>
<path fill="#F86A09" opacity="1.000000" stroke="none" 
	d="
M292.110107,206.965454 
	C293.347504,209.253052 295.115112,211.431839 295.615570,213.870682 
	C295.897888,215.246231 294.093506,217.050018 293.229065,218.660889 
	C292.722992,217.448700 292.068634,216.274796 291.743591,215.015869 
	C291.174469,212.811813 290.807495,210.555573 290.533630,208.017136 
	C291.177643,207.463867 291.643860,207.214661 292.110107,206.965454 
z"/>
<path fill="#140E0B" opacity="1.000000" stroke="none" 
	d="
M300.821686,334.106201 
	C299.089417,335.748871 297.290222,337.327667 295.644073,339.052490 
	C294.059143,340.713135 292.632385,342.524719 290.667084,344.244019 
	C290.053375,344.057007 289.908722,343.895996 289.764038,343.734955 
	C290.201935,342.783295 290.639801,341.831635 291.340454,340.321075 
	C291.827423,338.869263 292.051636,337.976318 292.275879,337.083405 
	C292.275879,337.083405 292.666290,337.060547 293.223083,337.013824 
	C294.981781,336.685608 296.183746,336.404114 297.385681,336.122650 
	C298.145264,334.348816 298.904846,332.574982 299.958679,330.757935 
	C300.442566,331.845215 300.632141,332.975708 300.821686,334.106201 
z"/>
<path fill="#1F1612" opacity="1.000000" stroke="none" 
	d="
M314.197052,331.085144 
	C317.733337,329.588531 321.269592,328.091919 325.208252,326.227600 
	C325.801636,325.916504 325.992676,325.973083 326.183685,326.029663 
	C323.676849,328.067383 321.169983,330.105072 318.068726,332.219116 
	C317.154114,332.389954 316.938019,332.594452 316.826019,332.908997 
	C312.925903,332.612000 309.025787,332.315002 304.761047,331.732971 
	C304.679535,331.093079 304.962646,330.738220 305.245758,330.383362 
	C306.465973,330.640076 307.686218,330.896759 309.504578,331.378479 
	C311.467529,331.430725 312.832275,331.257935 314.197052,331.085144 
z"/>
<path fill="#332116" opacity="1.000000" stroke="none" 
	d="
M292.031219,283.130341 
	C291.333527,283.010559 290.932434,282.858582 290.517487,282.518311 
	C296.116028,279.579285 291.512695,277.016632 290.144836,273.873871 
	C290.266754,273.131897 290.601318,272.906555 290.935913,272.681213 
	C293.058472,273.854950 295.181061,275.028687 297.700867,276.218964 
	C298.602386,276.491974 299.106628,276.748444 299.903625,277.047180 
	C299.653351,277.374420 299.110382,277.659393 297.921387,278.007111 
	C296.496979,278.388702 295.718567,278.707550 294.940186,279.026367 
	C294.840515,279.744965 294.740845,280.463562 294.619202,281.711792 
	C294.597229,282.241455 294.639923,282.627350 294.639923,282.627380 
	C293.869202,282.784271 293.098511,282.941193 292.031219,283.130341 
z"/>
<path fill="#2B1C13" opacity="1.000000" stroke="none" 
	d="
M271.014160,338.553101 
	C271.398163,338.166473 271.745361,338.200073 272.350891,338.303253 
	C271.784668,343.439423 275.640289,344.857208 279.260254,347.013397 
	C279.476044,347.399811 279.603027,347.609955 279.603027,347.609955 
	C277.693542,347.731262 275.784027,347.852600 273.543854,348.303375 
	C272.843719,348.592651 272.474304,348.552460 272.104858,348.512299 
	C271.729004,345.332642 271.353180,342.152954 271.014160,338.553101 
z"/>
<path fill="#140E0B" opacity="1.000000" stroke="none" 
	d="
M304.875244,350.572510 
	C304.463928,350.796570 304.267151,350.601624 304.053131,350.148010 
	C303.354248,347.513306 302.736115,345.073181 302.092651,342.002716 
	C302.680634,341.331116 303.293915,341.289856 303.907196,341.248596 
	C304.680023,341.847809 305.452820,342.446991 306.798645,343.334900 
	C308.904572,343.772369 310.437500,343.921112 311.970398,344.069885 
	C311.970398,344.069885 311.995819,344.004120 311.971466,344.251221 
	C311.947113,344.498291 311.869965,344.946198 311.869965,344.946198 
	C309.215576,346.218842 304.883972,345.313995 304.875244,350.572510 
z"/>
<path fill="#18110D" opacity="1.000000" stroke="none" 
	d="
M322.977844,344.137695 
	C322.754364,344.382355 322.530884,344.627014 321.757507,345.028870 
	C320.898560,346.108215 320.589508,347.030365 320.280487,347.952545 
	C317.748993,351.974640 314.439026,353.285522 310.461487,350.448151 
	C312.682068,349.712677 314.504913,349.415192 316.327728,349.117737 
	C318.842804,347.656006 320.326691,346.032196 317.348907,343.274414 
	C317.681793,342.827667 317.847992,342.787506 318.014221,342.747314 
	C318.624817,342.865814 319.235443,342.984283 320.382629,343.380310 
	C321.605438,343.817780 322.291656,343.977722 322.977844,344.137695 
z"/>
<path fill="#18110D" opacity="1.000000" stroke="none" 
	d="
M275.040283,298.013306 
	C275.162994,298.582397 275.094635,298.964233 274.705688,299.863525 
	C274.610443,301.934814 274.835785,303.488708 275.061157,305.042603 
	C276.073822,304.670349 277.086487,304.298096 278.803101,303.667084 
	C277.311890,306.291595 276.181427,308.281128 274.751160,310.705444 
	C274.268433,311.174011 274.085541,311.207825 273.902618,311.241608 
	C273.997803,306.828583 270.117889,302.386353 274.229004,297.731079 
	C274.588531,297.582672 274.718903,297.704346 275.040283,298.013306 
z"/>
<path fill="#412A1D" opacity="1.000000" stroke="none" 
	d="
M292.158325,206.653793 
	C291.643860,207.214661 291.177643,207.463867 290.435486,207.694183 
	C289.332611,206.505081 288.505646,205.334869 287.143402,203.787186 
	C284.992737,203.573547 283.377319,203.737366 281.761932,203.901199 
	C281.099945,204.002945 280.437988,204.104675 279.555847,204.323654 
	C279.423645,204.176666 279.474731,203.905502 279.530029,203.423431 
	C282.505402,203.003418 285.444122,202.587433 288.372162,202.652267 
	C289.931519,202.686798 291.472504,203.553192 293.405426,204.068588 
	C293.878387,204.528381 293.967682,204.963715 294.022064,205.731537 
	C293.393616,206.156754 292.800079,206.249451 292.158325,206.653793 
z"/>
<path fill="#2D2019" opacity="1.000000" stroke="none" 
	d="
M328.086853,229.406830 
	C328.128906,228.965469 328.568054,228.976791 328.908569,229.207047 
	C329.468475,229.707413 329.687866,229.977524 329.907257,230.247650 
	C329.938843,230.648346 329.970428,231.049042 330.033142,232.119751 
	C330.373779,234.201950 330.683319,235.614151 330.992859,237.026352 
	C331.018951,237.207932 331.045013,237.389511 331.159058,238.143524 
	C331.149994,239.152557 331.053009,239.589157 330.955994,240.025757 
	C329.398254,240.120117 327.840515,240.214493 326.864532,240.273605 
	C327.271362,236.680054 327.658081,233.264130 328.086853,229.406830 
z"/>
<path fill="#F27D34" opacity="1.000000" stroke="none" 
	d="
M237.250580,372.241547 
	C246.986465,371.935974 256.999634,371.952179 267.473633,371.919800 
	C267.409485,372.223633 266.882599,372.885834 266.359802,372.882629 
	C256.748871,372.823669 247.138412,372.685059 237.250580,372.241547 
z"/>
<path fill="#F86A09" opacity="1.000000" stroke="none" 
	d="
M314.974640,296.691956 
	C312.536560,293.395782 315.429596,289.481415 321.195801,288.963165 
	C319.003876,291.849701 317.162109,294.275085 314.974640,296.691956 
z"/>
<path fill="#F96A08" opacity="1.000000" stroke="none" 
	d="
M302.862488,359.301331 
	C303.298126,359.253021 303.571136,359.498901 303.936493,360.018433 
	C300.854675,362.928741 297.680481,365.565399 294.214600,368.114197 
	C293.922882,368.026398 293.993195,368.000214 293.976624,368.033691 
	C296.873322,365.243286 299.786560,362.419434 302.862488,359.301331 
z"/>
<path fill="#18100C" opacity="1.000000" stroke="none" 
	d="
M339.951569,264.117462 
	C340.302185,264.745789 340.652802,265.374115 341.397308,266.708313 
	C339.714996,265.938690 338.779449,265.510712 337.292053,264.913727 
	C336.593170,264.633026 336.446136,264.521271 336.299133,264.409546 
	C336.894653,262.601593 337.490204,260.793671 338.371216,258.322693 
	C338.468384,255.267944 338.280090,252.876282 338.091827,250.484619 
	C338.010254,249.603027 337.928711,248.721420 337.974182,247.382431 
	C338.101196,246.925034 338.394897,246.687057 338.394897,246.687057 
	C338.923798,250.772842 339.452698,254.858643 339.673462,259.606628 
	C339.560730,261.551697 339.756165,262.834564 339.951569,264.117462 
z"/>
<path fill="#271C16" opacity="1.000000" stroke="none" 
	d="
M303.762299,293.910797 
	C302.830292,296.369049 301.898285,298.827301 300.966278,301.285553 
	C300.580231,301.124695 300.194183,300.963837 299.808105,300.803009 
	C300.223511,299.149292 300.638885,297.495544 301.298889,295.270111 
	C301.395782,293.722687 301.248047,292.747009 301.100342,291.771301 
	C300.924622,290.880463 300.748871,289.989594 300.686768,288.624390 
	C300.957336,288.021240 301.114258,287.892456 301.271210,287.763702 
	C302.297943,289.161499 303.324677,290.559326 305.088287,291.905975 
	C306.876740,291.933350 307.928284,292.011871 308.979858,292.090393 
	C308.979858,292.090393 309.033569,292.537415 308.650970,292.815552 
	C306.766357,293.366058 305.264313,293.638428 303.762299,293.910797 
z"/>
<path fill="#F96A08" opacity="1.000000" stroke="none" 
	d="
M340.983521,327.470154 
	C341.185028,326.834076 341.373718,326.580322 341.682190,326.119507 
	C344.675293,330.401825 341.950745,333.627808 339.036652,337.084839 
	C338.358643,337.359283 338.008118,337.433594 337.388977,337.535065 
	C338.409729,334.330017 339.699036,331.097839 340.983521,327.470154 
z"/>
<path fill="#F86A09" opacity="1.000000" stroke="none" 
	d="
M321.010559,251.003326 
	C320.784973,251.411575 320.222534,251.670319 319.339783,251.989258 
	C317.186432,251.046021 315.353394,250.042587 313.210907,248.869766 
	C313.820435,247.512772 314.364166,246.302277 315.171997,244.503754 
	C317.206573,246.852051 318.940125,248.852936 321.010559,251.003326 
z"/>
<path fill="#F96A08" opacity="1.000000" stroke="none" 
	d="
M272.212036,348.873169 
	C272.474304,348.552460 272.843719,348.592651 273.490906,348.668640 
	C276.249847,350.540344 278.731049,352.376251 281.212219,354.212158 
	C280.903351,354.651825 280.594452,355.091461 280.285553,355.531097 
	C278.874969,354.601105 277.464386,353.671143 275.985046,352.695831 
	C275.400330,353.458710 274.811523,354.226898 273.717346,355.221893 
	C272.904633,355.478119 272.597626,355.475677 272.290833,355.441345 
	C273.397644,353.377258 275.180420,351.316284 272.212036,348.873169 
z"/>
<path fill="#F86A09" opacity="1.000000" stroke="none" 
	d="
M298.786377,237.788986 
	C299.359802,238.012100 299.637177,238.089325 300.052917,238.353729 
	C300.054199,239.753250 299.908569,240.996231 299.609070,243.552734 
	C297.348602,240.391678 295.762146,238.173172 294.175659,235.954681 
	C294.471558,235.597717 294.767487,235.240768 295.063385,234.883820 
	C296.208527,235.793365 297.353668,236.702927 298.786377,237.788986 
z"/>
<path fill="#F96A08" opacity="1.000000" stroke="none" 
	d="
M343.385559,312.854187 
	C342.931488,312.657135 342.771179,312.303802 342.318359,311.856812 
	C343.951385,309.275421 345.876892,306.787659 347.802368,304.299927 
	C348.341339,304.709595 348.880310,305.119232 349.419281,305.528900 
	C347.505951,307.918579 345.592621,310.308258 343.385559,312.854187 
z"/>
<path fill="#F86A09" opacity="1.000000" stroke="none" 
	d="
M279.192200,298.298035 
	C279.026459,297.841003 279.068756,297.662415 279.171906,297.215210 
	C282.451416,298.145264 285.670074,299.343872 288.888763,300.542511 
	C288.680786,301.095947 288.472809,301.649384 288.264832,302.202820 
	C285.309967,300.994049 282.355103,299.785278 279.192200,298.298035 
z"/>
<path fill="#F86A09" opacity="1.000000" stroke="none" 
	d="
M300.746216,311.853943 
	C299.970795,311.500610 299.492004,311.102844 298.925354,310.467651 
	C301.301270,308.768585 303.765015,307.306946 306.202820,305.860718 
	C306.701813,308.137939 306.701813,308.137939 300.746216,311.853943 
z"/>
<path fill="#F86A09" opacity="1.000000" stroke="none" 
	d="
M320.974792,213.627869 
	C320.647858,214.024124 320.284576,214.073975 319.648376,214.221039 
	C317.195740,211.932114 315.015961,209.546021 312.836212,207.159927 
	C312.994080,207.020615 313.151947,206.881302 313.309845,206.741989 
	C315.852692,208.921814 318.395569,211.101639 320.974792,213.627869 
z"/>
<path fill="#F86A09" opacity="1.000000" stroke="none" 
	d="
M317.326355,239.580688 
	C317.227875,241.175186 317.001129,242.442383 316.774414,243.709595 
	C316.337067,243.690018 315.899689,243.670441 315.462341,243.650879 
	C315.043945,241.074524 314.625519,238.498154 314.207123,235.921799 
	C314.698059,235.795914 315.188995,235.670013 315.679962,235.544128 
	C316.186005,236.780563 316.692078,238.016983 317.326355,239.580688 
z"/>
<path fill="#1B120E" opacity="1.000000" stroke="none" 
	d="
M272.280701,355.834900 
	C272.597626,355.475677 272.904633,355.478119 273.442993,355.416321 
	C273.786957,355.743134 273.899811,356.102264 273.994202,357.064148 
	C274.014587,358.112488 274.053406,358.558044 274.092224,359.003632 
	C274.077026,359.454224 274.061859,359.904785 274.110229,360.952454 
	C274.412994,361.796722 274.652161,362.043945 274.891327,362.291168 
	C275.055725,362.763702 275.220123,363.236237 275.516571,363.918640 
	C275.518677,364.316956 275.388733,364.505432 275.025024,364.945557 
	C273.951019,362.207611 273.110809,359.218018 272.280701,355.834900 
z"/>
<path fill="#F86A09" opacity="1.000000" stroke="none" 
	d="
M305.037231,330.061035 
	C304.962646,330.738220 304.679535,331.093079 304.367554,331.673340 
	C303.346069,332.521240 302.353485,333.143707 301.091278,333.936218 
	C300.632141,332.975708 300.442566,331.845215 300.068817,330.437317 
	C299.558716,329.630493 299.232758,329.101044 298.141479,327.328430 
	C301.054596,328.378418 302.941650,329.058594 305.037231,330.061035 
z"/>
<path fill="#F86A09" opacity="1.000000" stroke="none" 
	d="
M318.975708,310.710205 
	C318.528656,312.383392 318.095215,313.667877 317.386932,315.221313 
	C316.865417,311.885620 316.618713,308.280975 316.371979,304.676361 
	C316.753540,304.603333 317.135071,304.530334 317.516632,304.457306 
	C318.007507,306.412048 318.498383,308.366791 318.975708,310.710205 
z"/>
<path fill="#F86A09" opacity="1.000000" stroke="none" 
	d="
M331.109802,240.321503 
	C331.053009,239.589157 331.149994,239.152557 331.293213,238.383728 
	C333.213959,239.887772 335.088470,241.724030 336.860779,244.046295 
	C336.586853,244.695755 336.420898,244.864792 336.260651,245.039459 
	C334.594971,243.565384 332.929291,242.091309 331.109802,240.321503 
z"/>
<path fill="#F86A09" opacity="1.000000" stroke="none" 
	d="
M274.929688,289.994812 
	C274.635864,284.973572 274.361023,279.445923 274.069794,273.451721 
	C274.053406,272.985229 274.023041,273.032196 274.232605,272.994873 
	C274.442139,272.957520 274.905426,272.825317 274.905426,272.825317 
	C274.919861,278.379669 274.934265,283.934021 274.929688,289.994812 
z"/>
<path fill="#F86A09" opacity="1.000000" stroke="none" 
	d="
M275.973602,262.526855 
	C276.422821,263.160583 276.871246,264.167847 277.596985,265.279755 
	C277.161072,267.099274 276.447845,268.814178 275.409363,270.494385 
	C274.731720,270.330536 274.379364,270.201385 274.027008,270.072205 
	C274.675598,267.681610 275.324188,265.291046 275.973602,262.526855 
z"/>
<path fill="#F86A09" opacity="1.000000" stroke="none" 
	d="
M295.282471,232.971954 
	C292.905060,232.433350 290.873352,231.863770 288.841644,231.294205 
	C288.953888,230.869324 289.066132,230.444443 289.178345,230.019562 
	C291.411377,230.457138 293.646240,230.886658 295.862152,231.398300 
	C295.900818,231.407242 295.711243,232.404755 295.282471,232.971954 
z"/>
<path fill="#F86A09" opacity="1.000000" stroke="none" 
	d="
M315.784302,220.407272 
	C315.607056,220.892746 315.262878,221.135513 314.874176,221.698486 
	C313.159790,221.342575 311.489960,220.666458 309.820129,219.990326 
	C309.992310,219.490067 310.164520,218.989792 310.336700,218.489532 
	C312.096924,219.047882 313.857147,219.606232 315.784302,220.407272 
z"/>
<path fill="#F96A08" opacity="1.000000" stroke="none" 
	d="
M317.963715,342.410645 
	C317.847992,342.787506 317.681793,342.827667 317.270172,342.942993 
	C315.699982,341.916046 314.375183,340.813965 313.024353,339.355957 
	C312.998352,339.000061 313.022949,338.970245 313.022949,338.970245 
	C314.653046,340.004822 316.283112,341.039398 317.963715,342.410645 
z"/>
<path fill="#140E0B" opacity="1.000000" stroke="none" 
	d="
M290.393921,344.476929 
	C289.238922,345.571625 287.888062,346.407410 285.868164,347.271637 
	C284.511383,347.183319 283.823669,347.066498 283.135956,346.949738 
	C285.128357,345.964935 287.120758,344.980103 289.438599,343.865112 
	C289.908722,343.895996 290.053375,344.057007 290.393921,344.476929 
z"/>
<path fill="#F86A09" opacity="1.000000" stroke="none" 
	d="
M330.164307,248.433563 
	C329.995178,247.701172 329.977417,247.238144 329.844238,246.440125 
	C330.935028,247.022400 332.141296,247.939651 333.347534,248.856888 
	C332.336914,248.805557 331.326294,248.754227 330.164307,248.433563 
z"/>
<path fill="#F86A09" opacity="1.000000" stroke="none" 
	d="
M274.931213,255.999405 
	C274.720673,252.818207 274.528717,249.138535 274.641174,245.169891 
	C274.947021,248.420914 274.948425,251.960922 274.931213,255.999405 
z"/>
<path fill="#F96A08" opacity="1.000000" stroke="none" 
	d="
M282.677063,346.968475 
	C283.823669,347.066498 284.511383,347.183319 285.532776,347.395081 
	C283.944153,347.725464 282.021881,347.960907 279.851318,347.903137 
	C279.603027,347.609955 279.476044,347.399811 279.465759,347.277344 
	C280.376373,347.099030 281.297302,347.043152 282.677063,346.968475 
z"/>
<path fill="#F86A09" opacity="1.000000" stroke="none" 
	d="
M273.728210,311.457275 
	C274.085541,311.207825 274.268433,311.174011 274.716736,311.054749 
	C274.460480,312.886139 273.938782,314.803070 273.417084,316.720001 
	C273.009216,316.621002 272.601318,316.522003 272.193420,316.423035 
	C272.646881,314.839661 273.100342,313.256287 273.728210,311.457275 
z"/>
<path fill="#F96A08" opacity="1.000000" stroke="none" 
	d="
M323.404053,344.095520 
	C322.291656,343.977722 321.605438,343.817780 320.694580,343.379883 
	C323.668671,343.065430 326.867401,343.028961 330.530701,342.996277 
	C328.606903,343.351135 326.218597,343.702240 323.404053,344.095520 
z"/>
<path fill="#F86A09" opacity="1.000000" stroke="none" 
	d="
M334.619324,286.234619 
	C335.329437,286.032318 335.801147,286.043030 336.625793,285.996490 
	C336.407440,287.146851 335.836090,288.354462 335.264771,289.562103 
	C334.926941,289.470398 334.589142,289.378693 334.251343,289.286987 
	C334.294525,288.340546 334.337708,287.394104 334.619324,286.234619 
z"/>
<path fill="#F86A09" opacity="1.000000" stroke="none" 
	d="
M279.083557,232.833389 
	C278.729767,232.555710 278.722778,232.197388 278.707886,231.567261 
	C280.030212,230.776611 281.360443,230.257782 282.690643,229.738953 
	C282.866364,230.111862 283.042053,230.484756 283.217743,230.857666 
	C281.955261,231.489365 280.692810,232.121063 279.083557,232.833389 
z"/>
<path fill="#F86A09" opacity="1.000000" stroke="none" 
	d="
M345.054688,280.300690 
	C345.339020,279.526947 345.663239,279.087891 345.951508,278.335114 
	C346.371002,279.212433 346.826477,280.403442 347.281921,281.594452 
	C346.552795,281.274750 345.823669,280.955078 345.054688,280.300690 
z"/>
<path fill="#F86A09" opacity="1.000000" stroke="none" 
	d="
M328.075592,311.959808 
	C328.263336,313.827362 328.434357,316.177094 328.320160,318.801727 
	C328.042938,316.865082 328.050903,314.653534 328.075592,311.959808 
z"/>
<path fill="#F86A09" opacity="1.000000" stroke="none" 
	d="
M346.544556,284.447449 
	C347.089813,283.975372 347.804504,283.762787 348.519196,283.550171 
	C348.616425,284.002716 348.713654,284.455261 348.810883,284.907806 
	C348.111908,284.840851 347.412933,284.773895 346.544556,284.447449 
z"/>
<path fill="#1F150F" opacity="1.000000" stroke="none" 
	d="
M294.249817,355.253235 
	C292.729767,356.007538 291.209717,356.761841 289.689667,357.516144 
	C289.521362,357.176941 289.353058,356.837708 289.184753,356.498505 
	C290.422607,355.805206 291.660431,355.111908 293.373657,354.567535 
	C293.982635,354.895416 294.116241,355.074341 294.249817,355.253235 
z"/>
<path fill="#F86A09" opacity="1.000000" stroke="none" 
	d="
M338.070923,250.975616 
	C338.280090,252.876282 338.468384,255.267944 338.380554,257.958679 
	C338.086334,255.994019 338.068207,253.730331 338.070923,250.975616 
z"/>
<path fill="#F86A09" opacity="1.000000" stroke="none" 
	d="
M294.764038,282.964844 
	C294.639923,282.627350 294.597229,282.241455 294.688141,282.069397 
	C295.841217,282.716858 296.903381,283.536407 297.921814,284.901703 
	C297.894012,285.638977 297.909943,285.830505 297.925873,286.022003 
	C296.913300,285.115448 295.900696,284.208862 294.764038,282.964844 
z"/>
<path fill="#F86A09" opacity="1.000000" stroke="none" 
	d="
M335.997681,277.438354 
	C336.211823,278.923218 336.415131,280.861908 336.367889,283.108459 
	C336.073853,281.574951 336.030334,279.733582 335.997681,277.438354 
z"/>
<path fill="#F86A09" opacity="1.000000" stroke="none" 
	d="
M304.154968,293.943420 
	C305.264313,293.638428 306.766357,293.366058 308.660339,293.040497 
	C307.550751,293.316864 306.049194,293.646454 304.154968,293.943420 
z"/>
<path fill="#F96A08" opacity="1.000000" stroke="none" 
	d="
M315.896759,349.082886 
	C314.504913,349.415192 312.682068,349.712677 310.450195,350.052155 
	C311.849365,349.745483 313.657562,349.396790 315.896759,349.082886 
z"/>
<path fill="#F86A09" opacity="1.000000" stroke="none" 
	d="
M341.965881,269.000092 
	C341.863922,270.878021 341.775543,272.779572 341.392151,274.962952 
	C341.062714,273.450348 341.028290,271.655884 341.255615,269.488831 
	C341.689575,269.085693 341.861755,269.055115 342.033966,269.024536 
	C342.033966,269.024536 341.979431,269.023712 341.965881,269.000092 
z"/>
<path fill="#F86A09" opacity="1.000000" stroke="none" 
	d="
M271.998169,326.001526 
	C271.387787,325.458466 270.779205,324.913940 270.170654,324.369385 
	C270.452057,324.072510 270.733459,323.775635 271.014832,323.478729 
	C271.339539,324.089661 271.664276,324.700592 271.996338,325.653931 
	C272.003662,325.996338 272.000000,326.000000 271.998169,326.001526 
z"/>
<path fill="#F86A09" opacity="1.000000" stroke="none" 
	d="
M322.845367,238.682526 
	C322.538055,238.957108 322.107788,238.955750 321.355988,238.992737 
	C320.850800,238.544052 320.667145,238.057007 320.483521,237.569962 
	C321.229828,237.848831 321.976135,238.127701 322.845367,238.682526 
z"/>
<path fill="#F86A09" opacity="1.000000" stroke="none" 
	d="
M292.637878,308.042206 
	C291.612671,308.358704 290.204437,308.654449 288.404419,308.923340 
	C289.426727,308.604767 290.840820,308.313110 292.637878,308.042206 
z"/>
<path fill="#18100C" opacity="1.000000" stroke="none" 
	d="
M336.415619,245.261993 
	C336.420898,244.864792 336.586853,244.695755 336.891541,244.413971 
	C337.431488,244.909378 337.838440,245.523148 338.320129,246.411987 
	C338.394897,246.687057 338.101196,246.925034 337.958923,247.049835 
	C337.401306,246.611267 336.985962,246.047897 336.415619,245.261993 
z"/>
<path fill="#F86A09" opacity="1.000000" stroke="none" 
	d="
M331.000031,236.645386 
	C330.683319,235.614151 330.373779,234.201950 330.113342,232.411835 
	C330.444031,233.444077 330.725616,234.854233 331.000031,236.645386 
z"/>
<path fill="#F86A09" opacity="1.000000" stroke="none" 
	d="
M310.231995,320.313965 
	C311.387665,320.036102 312.781891,320.016266 314.594360,320.020630 
	C313.498566,320.220581 311.984558,320.396271 310.231995,320.313965 
z"/>
<path fill="#F86A09" opacity="1.000000" stroke="none" 
	d="
M306.921936,258.934998 
	C308.066833,258.596252 309.645905,258.278717 311.632477,257.965179 
	C310.478668,258.298187 308.917419,258.627197 306.921936,258.934998 
z"/>
<path fill="#F96A08" opacity="1.000000" stroke="none" 
	d="
M311.734009,343.764587 
	C310.437500,343.921112 308.904572,343.772369 307.103851,343.348328 
	C308.389893,343.201813 309.943787,343.330536 311.734009,343.764587 
z"/>
<path fill="#F86A09" opacity="1.000000" stroke="none" 
	d="
M275.040649,304.616272 
	C274.835785,303.488708 274.610443,301.934814 274.677490,300.153198 
	C274.986664,301.346924 275.003418,302.768433 275.040649,304.616272 
z"/>
<path fill="#271C16" opacity="1.000000" stroke="none" 
	d="
M298.198639,286.130005 
	C297.909943,285.830505 297.894012,285.638977 297.940369,285.165771 
	C299.027313,285.629639 300.051971,286.375214 301.173920,287.442261 
	C301.114258,287.892456 300.957336,288.021240 300.540894,288.314453 
	C299.678040,287.731903 299.074738,286.984955 298.198639,286.130005 
z"/>
<path fill="#F86A09" opacity="1.000000" stroke="none" 
	d="
M282.205048,203.935608 
	C283.377319,203.737366 284.992737,203.573547 286.837646,203.690613 
	C285.594177,203.970993 284.121155,203.970490 282.205048,203.935608 
z"/>
<path fill="#F86A09" opacity="1.000000" stroke="none" 
	d="
M319.316467,316.781189 
	C319.103760,315.631500 319.147949,314.251129 319.213074,312.457153 
	C319.347168,313.545837 319.460266,315.048187 319.316467,316.781189 
z"/>
<path fill="#F86A09" opacity="1.000000" stroke="none" 
	d="
M309.988373,207.026901 
	C310.481689,207.271240 310.700500,207.516693 310.919312,207.762146 
	C310.309448,207.767410 309.699585,207.772675 309.089722,207.777924 
	C309.297760,207.527939 309.505829,207.277969 309.988373,207.026901 
z"/>
<path fill="#F96A08" opacity="1.000000" stroke="none" 
	d="
M320.491394,347.754578 
	C320.589508,347.030365 320.898560,346.108215 321.528137,345.134644 
	C321.848633,345.083221 322.062653,345.474426 322.141785,345.682983 
	C321.714722,346.446594 321.208496,347.001617 320.491394,347.754578 
z"/>
<path fill="#F86A09" opacity="1.000000" stroke="none" 
	d="
M326.492920,325.968811 
	C325.992676,325.973083 325.801636,325.916504 325.313599,325.887726 
	C325.548370,325.478607 326.080139,325.041687 326.777374,324.397766 
	C327.114044,324.143707 327.285309,324.096649 327.715210,323.985718 
	C327.583282,324.583893 327.192719,325.245911 326.492920,325.968811 
z"/>
<path fill="#F96A08" opacity="1.000000" stroke="none" 
	d="
M303.791016,340.964355 
	C303.293915,341.289856 302.680634,341.331116 301.923096,341.664856 
	C301.723663,341.433350 301.668457,340.909393 301.613251,340.385437 
	C302.300446,340.483673 302.987640,340.581879 303.791016,340.964355 
z"/>
<path fill="#F86A09" opacity="1.000000" stroke="none" 
	d="
M296.993561,336.087769 
	C296.183746,336.404114 294.981781,336.685608 293.396240,336.922974 
	C294.208893,336.603546 295.405182,336.328217 296.993561,336.087769 
z"/>
<path fill="#F86A09" opacity="1.000000" stroke="none" 
	d="
M313.734192,331.051117 
	C312.832275,331.257935 311.467529,331.430725 309.820068,331.359344 
	C310.782013,331.082458 312.026672,331.049774 313.734192,331.051117 
z"/>
<path fill="#F86A09" opacity="1.000000" stroke="none" 
	d="
M287.401459,217.768951 
	C287.757233,218.183868 287.877777,218.496841 287.998352,218.809799 
	C287.474762,218.654068 286.951172,218.498337 286.427582,218.342621 
	C286.673798,218.117401 286.920013,217.892197 287.401459,217.768951 
z"/>
<path fill="#F86A09" opacity="1.000000" stroke="none" 
	d="
M339.968994,263.689453 
	C339.756165,262.834564 339.560730,261.551697 339.648438,260.050415 
	C339.949860,260.975128 339.968109,262.118286 339.968994,263.689453 
z"/>
<path fill="#18100C" opacity="1.000000" stroke="none" 
	d="
M336.934753,264.941895 
	C336.563019,265.802643 335.996674,266.466248 335.430328,267.129852 
	C335.191803,266.973022 334.953247,266.816223 334.714722,266.659393 
	C335.114990,266.036530 335.515259,265.413666 336.107300,264.600189 
	C336.446136,264.521271 336.593170,264.633026 336.934753,264.941895 
z"/>
<path fill="#F86A09" opacity="1.000000" stroke="none" 
	d="
M293.238495,312.395996 
	C294.074890,312.120941 295.132172,312.078491 296.582031,312.096832 
	C295.802856,312.314606 294.631104,312.471619 293.238495,312.395996 
z"/>
<path fill="#F86A09" opacity="1.000000" stroke="none" 
	d="
M286.339844,250.663940 
	C285.707977,250.767883 285.280731,250.717972 284.853485,250.668060 
	C285.096771,250.374893 285.346069,249.841003 285.581879,249.846893 
	C285.908051,249.855026 286.224121,250.269577 286.339844,250.663940 
z"/>
<path fill="#F86A09" opacity="1.000000" stroke="none" 
	d="
M326.008972,245.466858 
	C325.678558,244.788544 325.343994,243.765259 325.048767,242.376358 
	C325.393677,243.047806 325.699249,244.084839 326.008972,245.466858 
z"/>
<path fill="#F86A09" opacity="1.000000" stroke="none" 
	d="
M304.083008,229.967590 
	C304.280090,230.884430 304.447479,232.260559 304.329956,233.857147 
	C304.047760,232.860687 304.050507,231.643799 304.083008,229.967590 
z"/>
<path fill="#F86A09" opacity="1.000000" stroke="none" 
	d="
M332.047119,289.369934 
	C332.343231,289.735443 332.384796,290.097046 332.426361,290.458649 
	C332.168701,290.454712 331.911011,290.450745 331.653320,290.446777 
	C331.699738,290.086548 331.746155,289.726288 332.047119,289.369934 
z"/>
<path fill="#F86A09" opacity="1.000000" stroke="none" 
	d="
M308.802155,291.812927 
	C307.928284,292.011871 306.876740,291.933350 305.430206,291.820374 
	C306.231659,291.702454 307.428040,291.618958 308.802155,291.812927 
z"/>
<path fill="#F86A09" opacity="1.000000" stroke="none" 
	d="
M273.917969,228.003189 
	C273.723236,227.087738 273.560028,225.706589 273.663086,224.079987 
	C273.936066,225.068863 273.942749,226.303162 273.917969,228.003189 
z"/>
<path fill="#F86A09" opacity="1.000000" stroke="none" 
	d="
M293.068909,304.145142 
	C293.265259,305.000824 293.425720,306.286224 293.320557,307.787292 
	C293.047638,306.860229 293.040375,305.717529 293.068909,304.145142 
z"/>
<path fill="#F86A09" opacity="1.000000" stroke="none" 
	d="
M296.277588,307.805542 
	C296.004944,306.960358 295.989380,305.896942 295.976013,304.436737 
	C296.163727,305.222412 296.349213,306.404846 296.277588,307.805542 
z"/>
<path fill="#F86A09" opacity="1.000000" stroke="none" 
	d="
M322.037720,241.197433 
	C322.358093,241.668213 322.658356,242.482025 322.916260,243.641449 
	C322.588470,243.171539 322.303070,242.356003 322.037720,241.197433 
z"/>
<path fill="#F86A09" opacity="1.000000" stroke="none" 
	d="
M308.930481,256.083771 
	C308.337738,256.273010 307.300385,256.422424 306.040771,256.322754 
	C306.707672,256.063782 307.596771,256.053864 308.930481,256.083771 
z"/>
<path fill="#211813" opacity="1.000000" stroke="none" 
	d="
M302.962463,226.018555 
	C302.228668,225.723526 301.720306,225.191483 300.426910,223.837875 
	C302.025848,224.434036 302.613037,224.652969 303.390076,225.064880 
	C303.449280,225.432419 303.318604,225.606979 302.962463,226.018555 
z"/>
<path fill="#F86A09" opacity="1.000000" stroke="none" 
	d="
M321.149231,225.095245 
	C321.481476,224.899078 322.287903,224.647827 323.312714,224.638336 
	C322.895203,224.933456 322.259308,224.986816 321.149231,225.095245 
z"/>
<path fill="#F86A09" opacity="1.000000" stroke="none" 
	d="
M322.684021,246.236725 
	C322.851685,246.936447 322.757904,247.878189 322.386475,249.048889 
	C322.213379,248.344818 322.317963,247.411789 322.684021,246.236725 
z"/>
<path fill="#F96A08" opacity="1.000000" stroke="none" 
	d="
M295.604889,348.269562 
	C295.777832,348.952850 295.701965,349.888245 295.373352,351.076630 
	C295.199097,350.393616 295.277588,349.457672 295.604889,348.269562 
z"/>
<path fill="#F96A08" opacity="1.000000" stroke="none" 
	d="
M325.737274,348.253143 
	C325.895874,348.963867 325.772430,349.900208 325.385437,351.079437 
	C325.233002,350.374481 325.344116,349.426605 325.737274,348.253143 
z"/>
<path fill="#F96A08" opacity="1.000000" stroke="none" 
	d="
M309.759094,358.612549 
	C309.059967,358.798523 308.095337,358.741333 306.885742,358.407532 
	C307.591736,358.210388 308.542694,358.289886 309.759094,358.612549 
z"/>
<path fill="#F86A09" opacity="1.000000" stroke="none" 
	d="
M275.914185,237.911804 
	C275.692566,237.295013 275.509857,236.228149 275.614105,234.961365 
	C275.918365,235.661545 275.935699,236.561630 275.914185,237.911804 
z"/>
<path fill="#F86A09" opacity="1.000000" stroke="none" 
	d="
M309.891052,233.078217 
	C309.257782,233.291473 308.209808,233.464294 307.073669,233.302765 
	C307.815765,232.991531 308.646027,233.014664 309.891052,233.078217 
z"/>
<path fill="#F86A09" opacity="1.000000" stroke="none" 
	d="
M329.939697,229.892746 
	C329.687866,229.977524 329.468475,229.707413 329.128113,229.201508 
	C329.031006,228.532516 329.054810,228.099304 329.098755,227.338867 
	C329.403259,227.853714 329.687714,228.695786 329.939697,229.892746 
z"/>
<path fill="#F96A08" opacity="1.000000" stroke="none" 
	d="
M288.772034,368.063721 
	C288.192230,368.262787 287.169189,368.424927 285.902252,368.356445 
	C286.548492,368.092834 287.438629,368.059845 288.772034,368.063721 
z"/>
<path fill="#F96A08" opacity="1.000000" stroke="none" 
	d="
M292.731049,367.502045 
	C292.205719,367.802368 291.472229,367.901184 290.368958,367.966156 
	C290.840424,367.721710 291.681671,367.511108 292.731049,367.502045 
z"/>
<path fill="#F86A09" opacity="1.000000" stroke="none" 
	d="
M321.421936,229.772278 
	C321.173157,229.230759 321.134735,228.494995 321.157532,227.394577 
	C321.356628,227.879303 321.494476,228.728668 321.421936,229.772278 
z"/>
<path fill="#F86A09" opacity="1.000000" stroke="none" 
	d="
M301.064362,292.189911 
	C301.248047,292.747009 301.395782,293.722687 301.305664,294.911255 
	C301.054688,294.285553 301.041534,293.447052 301.064362,292.189911 
z"/>
<path fill="#F96A08" opacity="1.000000" stroke="none" 
	d="
M339.059967,313.206116 
	C339.250305,313.828278 339.130219,314.553925 338.999634,315.650513 
	C338.909302,315.117523 338.829407,314.213531 339.059967,313.206116 
z"/>
<path fill="#F86A09" opacity="1.000000" stroke="none" 
	d="
M332.666290,308.002869 
	C332.251862,308.368286 331.493896,308.728394 330.409973,309.106476 
	C330.830231,308.748840 331.576508,308.373199 332.666290,308.002869 
z"/>
<path fill="#F86A09" opacity="1.000000" stroke="none" 
	d="
M308.784241,316.618713 
	C308.251984,316.869995 307.518433,316.893036 306.421844,316.972107 
	C306.900177,316.815613 307.741608,316.603058 308.784241,316.618713 
z"/>
<path fill="#F96A08" opacity="1.000000" stroke="none" 
	d="
M330.232300,319.758545 
	C330.099518,319.066986 330.250061,318.167664 330.657104,317.038269 
	C330.780975,317.722382 330.648315,318.636536 330.232300,319.758545 
z"/>
<path fill="#F96A08" opacity="1.000000" stroke="none" 
	d="
M344.200073,301.783630 
	C343.934601,301.228119 343.942200,300.503479 343.852570,299.424011 
	C343.994598,299.917633 344.233887,300.766113 344.200073,301.783630 
z"/>
<path fill="#F86A09" opacity="1.000000" stroke="none" 
	d="
M297.793640,325.634521 
	C298.145721,325.940125 298.282135,326.189453 298.418579,326.438782 
	C298.160767,326.513123 297.902954,326.587494 297.645142,326.661865 
	C297.622772,326.300690 297.600403,325.939453 297.793640,325.634521 
z"/>
<path fill="#F86A09" opacity="1.000000" stroke="none" 
	d="
M311.112122,293.733856 
	C311.214111,293.249390 311.357391,292.995300 311.500641,292.741211 
	C311.643616,292.995026 311.954468,293.314056 311.887543,293.486328 
	C311.801697,293.707367 311.412140,293.810364 311.112122,293.733856 
z"/>
<path fill="#F86A09" opacity="1.000000" stroke="none" 
	d="
M295.273865,279.017303 
	C295.718567,278.707550 296.496979,278.388702 297.628845,278.112640 
	C297.190735,278.439697 296.399139,278.723969 295.273865,279.017303 
z"/>
<path fill="#F86A09" opacity="1.000000" stroke="none" 
	d="
M290.752899,272.510406 
	C290.601318,272.906555 290.266754,273.131897 289.846069,273.654419 
	C290.029907,273.414246 290.299896,272.876923 290.752899,272.510406 
z"/>
<path fill="#F86A09" opacity="1.000000" stroke="none" 
	d="
M291.945984,337.248352 
	C292.051636,337.976318 291.827423,338.869263 291.354309,340.003052 
	C291.275665,339.300415 291.445892,338.356873 291.945984,337.248352 
z"/>
<path fill="#F86A09" opacity="1.000000" stroke="none" 
	d="
M305.254425,272.839752 
	C305.032013,272.269958 305.053467,271.517670 305.103943,270.390167 
	C305.254700,270.895721 305.376495,271.776489 305.254425,272.839752 
z"/>
<path fill="#F86A09" opacity="1.000000" stroke="none" 
	d="
M302.080231,270.125641 
	C302.283447,270.713196 302.443848,271.744049 302.352112,273.005005 
	C302.079102,272.346344 302.058258,271.457672 302.080231,270.125641 
z"/>
<path fill="#18110D" opacity="1.000000" stroke="none" 
	d="
M273.976013,270.452026 
	C274.379364,270.201385 274.731720,270.330536 275.181458,270.742432 
	C275.167328,271.419434 275.055847,271.813721 274.924866,272.516663 
	C274.905426,272.825317 274.442139,272.957520 274.204956,272.999207 
	C273.953552,272.304504 273.939270,271.568176 273.976013,270.452026 
z"/>
<path fill="#18100C" opacity="1.000000" stroke="none" 
	d="
M342.235382,268.690796 
	C341.861755,269.055115 341.689575,269.085693 341.265625,269.042389 
	C341.132294,268.386993 341.250702,267.805420 341.369110,267.223877 
	C341.725006,267.601593 342.080902,267.979309 342.235382,268.690796 
z"/>
<path fill="#F96A08" opacity="1.000000" stroke="none" 
	d="
M274.299805,358.854584 
	C274.053406,358.558044 274.014587,358.112488 274.063202,357.339905 
	C274.269592,357.577118 274.388519,358.141327 274.299805,358.854584 
z"/>
<path fill="#18100C" opacity="1.000000" stroke="none" 
	d="
M333.515198,271.727936 
	C333.061707,271.324493 332.608215,270.921051 331.594818,270.019501 
	C332.814331,270.148529 333.349304,270.205109 333.856873,270.749146 
	C333.724701,271.400330 333.619934,271.564148 333.515198,271.727936 
z"/>
<path fill="#1C130D" opacity="1.000000" stroke="none" 
	d="
M273.952850,220.230469 
	C274.312134,220.122040 274.636383,220.284195 275.064636,220.729401 
	C275.002655,221.324783 274.836670,221.637146 274.429321,222.065125 
	C274.057861,222.064102 273.927795,221.947433 273.607208,221.648102 
	C273.583710,221.143951 273.750732,220.822495 273.952850,220.230469 
z"/>
<path fill="#1F150F" opacity="1.000000" stroke="none" 
	d="
M293.703369,354.414856 
	C293.654633,353.949829 293.776367,353.807495 294.035767,353.605133 
	C294.342590,353.628540 294.536499,353.733154 294.990356,354.041870 
	C295.178619,354.589630 294.998505,354.861359 294.479889,355.157227 
	C294.116241,355.074341 293.982635,354.895416 293.703369,354.414856 
z"/>
<path fill="#F96A08" opacity="1.000000" stroke="none" 
	d="
M317.043823,332.889954 
	C316.938019,332.594452 317.154114,332.389954 317.702698,332.317993 
	C317.782410,332.611298 317.559265,332.788116 317.043823,332.889954 
z"/>
<path fill="#18100C" opacity="1.000000" stroke="none" 
	d="
M334.020142,271.015869 
	C334.134491,271.246460 334.058197,271.697754 333.748535,271.938477 
	C333.619934,271.564148 333.724701,271.400330 334.020142,271.015869 
z"/>
<path fill="#F96A08" opacity="1.000000" stroke="none" 
	d="
M318.056335,358.133728 
	C318.053436,358.334534 317.800690,358.556091 317.287903,358.764587 
	C317.287384,358.552551 317.546936,358.353516 318.056335,358.133728 
z"/>
<path fill="#F86A09" opacity="1.000000" stroke="none" 
	d="
M319.120911,226.994293 
	C319.324432,226.992355 319.549377,227.229431 319.749481,227.718445 
	C319.430450,227.803772 319.236359,227.558090 319.120911,226.994293 
z"/>
<path fill="#F96A08" opacity="1.000000" stroke="none" 
	d="
M274.863373,362.039124 
	C274.652161,362.043945 274.412994,361.796722 274.190826,361.283020 
	C274.417053,361.273376 274.626221,361.530243 274.863373,362.039124 
z"/>
<path fill="#F96A08" opacity="1.000000" stroke="none" 
	d="
M312.983398,339.012360 
	C312.852386,338.869324 312.736389,338.713989 312.620361,338.558655 
	C312.712189,338.604736 312.804016,338.650818 312.959412,338.833557 
	C313.022949,338.970245 312.998352,339.000061 312.983398,339.012360 
z"/>
<path fill="#F96A08" opacity="1.000000" stroke="none" 
	d="
M312.053833,344.887482 
	C311.869965,344.946198 311.947113,344.498291 311.942383,344.271118 
	C312.116730,344.206055 312.303284,344.361450 312.462402,344.541199 
	C312.477081,344.557800 312.316772,344.729248 312.053833,344.887482 
z"/>
</svg>